<svg preserveAspectRatio="none" width="100%" height="100%" overflow="visible" style="display: block;" viewBox="0 0 1392.14 1702.11" fill="none" xmlns="http://www.w3.org/2000/svg">
<g id="Whangaehu">
<path id="Shape" fill-rule="evenodd" clip-rule="evenodd" d="M510.526 615.398C510.447 592.982 478.815 567.774 465.303 554.778C438.586 529.074 410.8 505.337 383.27 481.221C355.741 457.106 328.138 433.055 301.887 406.58C284.842 389.393 264.814 370.037 253.255 345.496C228.629 293.198 306.272 300.965 326.383 299.821C377.547 296.898 436.233 298.232 484.191 270.998C512.82 254.74 524.236 227.473 518.087 187.733C516.105 174.809 510.239 159.937 515.208 147.347C520.515 133.9 532.724 126.14 542.857 120.936C579.815 101.978 622.308 99.7818 661.412 97.4023C703.578 94.7874 746.14 95.5523 788.009 95.3496C805.762 95.2647 824.303 86.8512 841.209 80.0133C863.372 71.0508 885.273 60.9835 907.252 51.2496C955.607 29.886 1005.43 7.38495 1056.59 1.95907C1088.63 -1.44028 1123.65 3.15538 1148.53 32.7232C1161.03 47.5692 1167.57 69.6388 1174.8 89.2439C1183.54 112.928 1191.94 136.841 1201.25 160.153C1231.24 235.233 1274.06 308.6 1343.56 312.287C1354.08 312.843 1364.4 311.032 1374.87 310.692C1381.53 310.483 1387.46 312.607 1389.94 321.805C1396.17 344.875 1376.59 381.294 1368.57 399.598C1350.99 439.664 1331.17 477.933 1312.61 517.196C1300.32 543.162 1279.06 578.646 1278.84 610.194C1278.64 638.304 1306.98 658.622 1322.41 672.468C1336.87 685.431 1363.07 703.572 1364.65 729.943C1365.42 742.729 1359.03 753.326 1352.35 761.55C1340.65 775.932 1327.18 786.078 1316.65 802.486C1299.4 829.406 1284.98 866.446 1287.32 902.721C1288.95 927.857 1299.82 944.317 1313.65 960.052C1319.46 966.668 1324.17 971.349 1324.48 982.089C1324.98 999.145 1319.91 1017.19 1315.74 1033.01C1300.82 1089.6 1279.62 1144.32 1256.04 1195.42C1244.26 1220.95 1231.53 1246.41 1215.91 1268.19C1205.67 1282.49 1191.87 1299.52 1176.27 1299.5C1158.2 1299.5 1139.08 1290.89 1121.51 1284.46C1088.7 1272.44 1056.29 1258.54 1024.01 1244.28C949.361 1211.3 875.409 1175.64 802.16 1137.31C750.565 1110.26 697.875 1083.18 649.366 1047.23C639.906 1040.17 630.977 1031.93 622.699 1022.64C613.855 1012.88 602.88 1008.51 591.751 1005.26C522.68 985.051 447.01 1000.56 377.651 1010.29C360.047 1012.76 342.442 1015.23 324.788 1016.96C309.611 1018.44 291.442 1022.7 276.691 1016.31C247.626 1003.72 273.034 957.339 283.777 938.44C321.597 871.898 370.393 815.6 415.621 758.125C437.125 730.753 458.792 703.454 479.127 674.533C489.716 659.498 510.596 635.049 510.526 615.398Z" stroke="var(--stroke-0, #5BE7C3)" stroke-width="2"/>
<path id="Shape_2" fill-rule="evenodd" clip-rule="evenodd" d="M523.56 611.619C511.967 587.899 491.628 570.367 474.745 553.868C450.45 530.116 425.391 507.684 400.709 484.605C377.37 462.78 353.982 440.707 332.369 415.922C319.19 400.808 302.654 382.734 296.412 360.381C282.871 311.929 355.717 319.28 373.701 318.012C418.41 314.876 469.098 314.157 510.46 288.647C536.287 272.716 546.898 246.298 541.389 209.621C539.486 196.931 536.054 186.097 540.398 173.473C545.421 158.862 556.973 149.753 567.564 143.323C600.74 123.178 639.955 118.898 675.917 115.337C713.069 111.658 751.778 109.064 787.736 111.756C802.115 112.828 818.665 106.744 832.896 102.079C854.791 94.8911 876.464 86.599 898.25 78.8885C942.528 63.2061 987.955 48.0988 1034.02 46.3803C1067.27 45.1388 1101.95 51.8691 1129.61 77.8822C1157.65 104.261 1170.09 145.153 1185.64 184.026C1212.5 251.231 1248.76 332.943 1310.89 347.142C1320.31 349.298 1329.37 348.129 1338.78 348.658C1343.62 348.926 1349.13 349.775 1351.58 356.068C1357.95 372.404 1340.49 402.272 1334.62 414.785C1318.38 449.365 1300.13 482.252 1283.12 516.165C1269.61 543.093 1252.48 573.014 1247.26 604.934C1240.92 643.669 1282.35 671.231 1296.92 698.506C1322.19 745.801 1274.32 772.748 1250.73 795.298C1223.63 821.187 1201.26 868.417 1225.56 908.473C1234.85 923.789 1246.28 932.918 1250.43 952.906C1256.92 984.166 1252.01 1019.89 1246.75 1050.79C1238.81 1097.24 1226.26 1143.19 1209.19 1185.18C1196.97 1215.23 1176.68 1262.37 1146.98 1258.83C1126.98 1256.47 1106.65 1247.85 1087.18 1240.23C1058.03 1228.83 1029.24 1215.83 1000.6 1202.33C934.505 1171.26 869.136 1136.99 805.05 1099.3C761.323 1073.58 639.35 968.445 630.172 964.694C602.807 953.52 571.694 955.487 543.482 957.219C505.953 959.519 468.612 965.478 431.301 971C413.541 973.614 395.691 976.809 377.836 978.096C365.128 979.011 348.439 979.795 337.307 970.052C315.58 951.044 339.787 907.551 349.797 889.151C380.464 832.74 419.258 783.889 455.631 733.941C473.481 709.418 491.604 684.934 507.807 658.444C514.342 647.747 530.724 626.269 523.56 611.619Z" stroke="var(--stroke-0, #5ACEF2)" stroke-width="2"/>
<path id="Shape_3" fill-rule="evenodd" clip-rule="evenodd" d="M539.597 599.454C507.938 551.988 464.243 516.687 426.531 477.045C407.603 457.142 388.556 436.697 372.231 412.991C363.738 400.663 353.134 385.075 351.498 367.891C347.126 321.922 412.783 328.138 432.435 326.393C470.43 323.008 513.352 320.439 547.822 296.981C568.881 282.64 579.252 259.104 575.316 228.168C573.571 214.442 570.854 202.782 575.316 189.304C579.837 175.65 589.257 166.016 598.795 158.793C626.205 138.021 660.268 131.381 691.129 126.433C727.332 120.67 763.807 118.42 800.259 119.701C832.186 120.805 863.959 108.38 895.132 100.19C936.428 89.3467 978.473 79.8759 1020.73 81.3073C1054.1 82.4446 1087.74 91.3795 1116.27 115.125C1145.26 139.309 1162.69 175.506 1178.41 214.566C1202.17 273.614 1231.77 352.74 1283.89 375.166C1291.47 378.434 1298.54 378.794 1306.35 379.362C1310.15 379.637 1315.05 379.722 1316.94 384.944C1321.47 397.52 1304.72 421.899 1300.04 430.396C1285.12 457.521 1268.94 483.424 1253.65 510.19C1239.37 535.177 1223.82 561.217 1214.95 590.499C1200.84 637.135 1245.96 664.404 1244.7 708.843C1243.91 736.432 1223.88 756.217 1208.01 769.904C1188.48 786.734 1160.35 797.8 1150.58 828.513C1143.3 851.39 1154.72 864.704 1163.52 882.064C1178.43 911.477 1179.45 951.347 1177.9 985.394C1175.81 1031.4 1167.63 1078.09 1153.72 1120.38C1147.41 1139.55 1139.69 1159.49 1128.31 1174.38C1117.66 1188.33 1107.58 1191.91 1093.34 1189.05C1049.75 1180.3 1005.74 1155.88 963.947 1134.08C911.432 1106.68 859.641 1076.43 809.396 1042.4C775.134 1019.19 740.1 994.629 710.027 962.563C702.189 954.203 694.163 945.118 688.432 934.092C684.099 925.804 682.26 918.96 674.958 914.228C653.313 900.208 623.206 903.875 600.015 905.333C562.932 907.653 526.028 913.83 489.174 919.392C467.668 922.66 427.155 932.941 409.982 908.28C395.159 886.986 413.046 850.677 422.183 831.919C445.295 784.479 475.025 742.844 502.609 699.973C515.251 680.326 528.388 660.528 538.829 638.684C541.496 633.115 545.769 625.736 546.503 618.971C547.326 611.219 543.484 605.304 539.597 599.454Z" stroke="var(--stroke-0, #5BE7C3)" stroke-width="2"/>
<path id="Shape_4" fill-rule="evenodd" clip-rule="evenodd" d="M542.319 610.504C513.065 568.535 477.822 534.057 446.416 494.784C432.334 477.175 418.114 458.702 407.384 437.221C401.613 425.669 395.485 411.128 397.076 396.77C401.643 355.561 455.643 359.283 477.46 356.869C509.877 353.324 547.118 349.752 575.782 327.532C594.559 312.978 601.6 291.483 598.095 263.762C594.331 234.026 602.745 212.44 621.894 195.851C645.902 175.07 676.207 166.599 704.083 160.581C737.667 153.365 771.677 150.167 805.697 151.025C838.784 151.862 870.839 144.549 903.708 139.793C947.286 133.494 992.262 130.387 1035.35 143.299C1072.86 154.544 1106.75 179.322 1132.15 217.64C1158.68 257.633 1171.82 308.02 1193.36 352.264C1206.8 379.861 1225.53 416.368 1250.64 427.095C1259.02 430.673 1274.28 425.846 1267.59 443.448C1263.77 453.515 1256.61 462.346 1250.96 470.575C1241.83 483.873 1232.39 496.805 1223.1 509.92C1203.31 537.877 1182.11 566.429 1167.28 599.534C1148.59 641.215 1176.37 673.293 1172.99 715.555C1171.17 738.299 1159.18 756.451 1146.49 770.71C1138.29 779.947 1129.31 787.947 1120.14 795.41C1110.57 803.207 1099.24 809.147 1090.89 819.226C1078.99 833.571 1084.15 850.552 1086.39 869.097C1090.31 901.686 1091.18 934.791 1088.95 967.659C1086.24 1007.95 1079.87 1049.38 1066.44 1086C1061.22 1100.25 1054.61 1115.36 1044.79 1124.92C1034.96 1134.47 1024.8 1133.82 1013.55 1130.94C980.164 1122.44 946.85 1102.65 915.181 1083.9C875.545 1060.42 836.687 1034.18 799.579 1004.34C773.964 983.731 748.266 961.471 726.836 933.534C720.604 925.403 714.673 916.697 709.879 906.977C706.587 900.311 704.821 891.709 700.052 886.699C685.127 871.059 655.164 875.729 637.662 876.638C602.73 878.45 568.35 887.065 533.463 889.158C514.424 890.303 484.605 893.181 470.622 871.798C457.473 851.697 469.383 820.038 477.242 800.669C492.687 762.586 513.437 728.657 532.035 693.256C539.681 678.689 548.061 663.448 553.014 646.814C557.417 631.992 549.816 621.264 542.319 610.504Z" stroke="var(--stroke-0, #5ACEF2)" stroke-width="2"/>
<path id="Shape_5" fill-rule="evenodd" clip-rule="evenodd" d="M549.514 611.19C526.229 574.259 498.158 541.476 474.704 503.944C460.976 481.965 437.334 445.014 447.951 414.028C459.599 379.977 500.199 379.05 523.667 376.306C551.6 373.04 584.402 368.579 608.306 347.318C615.867 340.597 622.307 331.701 625.037 319.983C627.96 307.442 624.765 296.468 624.348 283.914C623.476 257.578 635.396 236.434 651.171 221.914C673.465 201.384 701.343 191.678 727.675 184.911C757.507 177.279 787.835 173.516 818.224 173.677C847.266 173.807 876.001 172.958 905.073 171.978C943.092 170.672 981.646 172.782 1018.53 186.1C1054.86 199.229 1087.89 223.834 1113.83 260.027C1139.14 295.345 1156.22 338.513 1171.18 382.485C1179.66 407.444 1194 444.74 1214.24 457.347C1223.25 462.957 1232.08 462.572 1222.51 477.164C1210.45 495.538 1194.21 510.28 1180.25 525.996C1160.11 548.674 1139.46 571.797 1122.56 598.76C1111.77 615.978 1106.95 632.686 1107.7 654.98C1108.27 671.962 1110.88 688.769 1109.56 705.817C1106.47 745.83 1082.58 773.271 1061.45 798.823C1047.87 815.257 1035.45 827.792 1028.46 851.169C1020.19 878.799 1016.71 908.858 1011.18 937.546C1005.11 969.049 998.094 1001.82 984.837 1029.57C973.036 1054.27 958.683 1065.35 937.201 1058.69C903.695 1048.32 870.67 1022.77 840.925 999.128C810.649 975.077 780.894 948.036 755.805 914.978C742.26 897.127 733.016 876.166 720.987 856.989C705.856 832.913 671.627 842.031 651.285 844.069C617.516 847.452 511.262 872.77 521.066 790.769C525.159 756.543 541.275 724.955 553.061 694.752C557.946 682.217 565.016 667.174 566.121 652.811C567.325 637.167 556.514 622.307 549.514 611.19Z" stroke="var(--stroke-0, #FF8062)" stroke-width="2"/>
<path id="Shape_6" fill-rule="evenodd" clip-rule="evenodd" d="M561.808 614.327C544.014 580.86 522.719 549.242 507.451 513.096C497.546 489.687 487.819 458.409 500.596 433.641C515.018 405.69 546.817 399.174 570.183 395.613C594.256 391.946 622.995 388.862 642.671 367.668C648.931 360.917 654.091 351.814 655.052 340.913C655.978 330.456 653.363 320 654.23 309.354C656.171 285.448 667.161 265.751 681.33 251.465C723.242 209.202 785.622 199.804 836.191 198.7C861.503 198.151 887.553 201.033 913.028 203.098C946.085 205.778 979.192 211.529 1010.72 225.39C1077.75 254.851 1122.68 320.19 1154.06 401.494C1163.93 427.086 1171.49 454.776 1186.97 475.342C1194.94 485.962 1193.2 493.588 1185.04 503.274C1172.29 518.409 1156.74 529.977 1142.58 542.609C1122.45 560.574 1101.89 578.808 1084.08 600.328C1071.81 615.163 1063.1 629.456 1060.46 651.701C1058.57 667.562 1059.01 683.724 1057.88 699.683C1055.72 730 1048.32 760.088 1035.23 785.235C1024.83 805.168 1012.45 823.283 999.655 840.556C983.02 863.044 968.951 885.891 956.317 912.581C939.568 947.91 916.034 1013.08 876.583 995.833C833.071 976.802 792.288 928.448 764.372 881.597C754.997 865.867 747.301 846.575 734.657 834.975C715.729 817.637 696.524 818.245 674.01 818.317C640.304 818.415 566.959 828.067 566.166 761.46C565.854 735.071 574.511 710.12 578.656 684.737C583.331 656.309 573.961 637.134 561.808 614.327Z" stroke="var(--stroke-0, #F1B170)" stroke-width="2"/>
<path id="Shape_7" fill-rule="evenodd" clip-rule="evenodd" d="M575.061 617.31C557.461 573.692 517.993 502.018 548.011 453.515C563.868 427.882 591.914 418.25 615.441 412.509C634.375 407.866 657.208 406.122 671.513 386.439C682.028 371.967 677.36 350.906 681.389 332.79C686.389 310.331 697.865 291.954 711.967 278.141C751.375 239.539 806.169 227.692 853.575 225.171C902.81 222.559 957.059 234.778 1003.39 258.282C1061.16 287.598 1104.43 343.108 1134.7 413.404C1140.28 426.38 1145.36 439.696 1150.72 452.829C1154.32 461.639 1159.66 470.162 1162.5 479.429C1167.23 494.88 1161.66 507.51 1152.73 517.581C1139.89 532.079 1124.11 542.397 1109.47 553.277C1089.45 568.167 1068.98 582.789 1050.35 600.259C1037.83 612.014 1024.73 624.677 1020.25 645.072C1017.19 658.982 1016.56 673.715 1016.67 688.122C1016.91 719.012 1015.68 743.992 1004.75 772.282C986.76 818.728 959.1 860.492 929.88 895.241C906.947 922.513 870.661 964.877 837.248 946.644C807.269 930.317 789.733 891.238 769.982 859.643C760.379 844.283 749.592 830.255 736.916 819.329C720.936 805.556 705.892 799.776 686.959 797.523C655.092 793.729 607.042 792.743 597.191 742.326C593.554 723.72 595.63 704.448 593.723 685.601C591.23 660.68 583.941 639.312 575.061 617.31Z" stroke="var(--stroke-0, #5BE7C3)" stroke-width="2"/>
<path id="Shape_8" fill-rule="evenodd" clip-rule="evenodd" d="M593.363 618.926C580.83 571.199 564.365 511.05 594.636 468.632C609.298 448.084 629.923 436.597 649.884 428.012C664.18 421.86 686.88 420.049 695.645 401.135C702.082 387.216 702.974 368.014 708.797 353.101C716.799 332.598 728.922 315.711 743.144 302.491C780.194 268.043 828.45 254.732 872.458 250.92C968.079 242.65 1065.37 308.519 1116.54 416.891C1131.8 449.195 1151.49 483.578 1126.84 516.581C1099.92 552.585 1059.37 569.453 1027.24 595.036C1014.96 604.804 999.321 616.546 992.473 634.231C988.353 644.861 988.07 658.199 987.882 669.902C987.387 699.708 985.51 726.513 976.423 754.326C962.39 797.306 940.012 836.958 914.653 869.438C892.538 897.761 860.999 931.045 828.881 910.627C804.255 894.936 788.637 861.632 769.503 837.082C748.209 809.741 721.875 791.317 692.956 782.314C664.824 773.58 633.969 767.689 619.143 730.58C614.057 717.851 608.744 701.369 606.837 687.279C603.759 664.049 599.253 641.189 593.363 618.926V618.926Z" stroke="var(--stroke-0, #FF8062)" stroke-width="2"/>
<path id="Shape_9" fill-rule="evenodd" clip-rule="evenodd" d="M613.77 619.262C607.971 571.068 607.327 520.815 634.267 482.832C646.84 465.111 662.733 452.522 678.804 441.115C690.629 432.723 702.84 425.643 711.671 411.884C719.853 399.144 726.073 384.352 733.972 371.279C744.392 353.955 756.86 338.957 770.897 326.864C806.083 296.606 848.887 282.454 889.836 277.546C909.659 275.16 931.162 273.918 950.852 280.422C969.867 286.697 988.669 296.619 1006.15 308.189C1043.32 332.76 1075.53 368.743 1098.89 414.237C1114.9 445.443 1123.56 475.785 1102.82 507.442C1079.44 543.124 1042.79 562.812 1012.58 585.971C991.861 601.855 968.638 617.425 964.767 651.18C961.685 678.038 959.182 703.531 951.208 728.919C939.341 766.366 921.892 800.288 899.896 828.672C879.781 854.531 854.333 876.474 825.56 862.662C802.763 851.701 785.076 827.143 765.159 809.586C742.962 789.976 718.574 779.165 692.894 770.471C669.815 762.627 648.083 750.574 633.167 724.984C630.114 719.754 626.907 714.061 624.553 708.211C621.55 700.746 621.783 693.347 621.193 684.98C619.657 662.9 616.391 641.074 613.77 619.262Z" stroke="var(--stroke-0, #F1B170)" stroke-width="2"/>
<path id="Shape_10" fill-rule="evenodd" clip-rule="evenodd" d="M636.27 615.323C636.765 569.546 645.112 526.283 667.972 490.608C677.745 475.347 689.416 462.776 700.17 448.792C708.828 437.518 717.012 427.043 726.968 417.752C750.586 395.754 769.781 367.288 794.88 347.699C828.385 321.511 866.765 307.035 904.847 301.248C923.442 298.419 942.652 297.431 961.465 300.626C977.623 303.369 993.098 313 1007.45 322.853C1035.59 342.154 1062.91 369.586 1081.18 404.292C1121.45 480.807 1042.04 536.437 1001.29 569.015C982.542 584.001 953.901 601.358 946.223 631.042C940.735 652.248 937.391 673.814 930.323 694.365C911.336 749.557 872.793 814.471 821.431 805.829C799.452 802.136 779.42 787.137 758.903 777.067C737.777 766.697 715.971 760.916 694.013 754.572C673.49 748.647 657.134 740.214 643.879 717.607C637.543 706.811 638.103 693.887 637.538 680.642C636.617 658.887 636.047 637.006 636.27 615.323Z" stroke="var(--stroke-0, #5BE7C3)" stroke-width="2"/>
<path id="Shape_11" fill-rule="evenodd" clip-rule="evenodd" d="M656.759 609.459C665.01 540.363 695.657 464.93 740.719 424.802C793.725 377.599 851.15 337.85 914.481 326.423C943.843 321.125 976.007 318.518 1003.71 335.844C1024.8 349.022 1049.29 368.72 1060.89 396.421C1089.28 464.178 1026.14 518.117 990.16 549.464C970.79 566.34 946.134 582.784 931.535 607.427C923.065 621.716 918.741 640.617 911.903 656.31C891.179 703.866 857.066 742.223 814.573 749.083C794.925 752.251 775.134 748.331 755.635 745.215C735.676 742.027 715.468 740.295 695.632 735.846C679.798 732.292 661.137 726.275 655.306 703.924C647.952 675.759 653.391 637.677 656.759 609.459Z" stroke="var(--stroke-0, #5ACEF2)" stroke-width="2"/>
<path id="Shape_12" fill-rule="evenodd" clip-rule="evenodd" d="M676.85 598.36C688.884 533.397 714.368 470.031 757.209 431.25C779.928 410.685 806.3 396.49 831.621 382.464C860.322 366.569 890.309 354.23 920.936 348.11C959.07 340.486 1020.83 333.613 1040.76 390.925C1060.53 447.812 1010.56 498.16 981.01 526.852C962.064 545.232 941.788 562.102 923.687 582.196C913.871 593.089 906.31 605.676 898.004 618.453C875.047 653.854 842.32 681.879 808.961 696.839C776.631 711.342 736.635 717.763 702.508 712.97C687.782 710.91 677.257 703.96 672.804 684.2C666.632 656.731 671.875 625.194 676.85 598.36Z" stroke="var(--stroke-0, #F1B170)" stroke-width="2"/>
<path id="Shape_13" fill-rule="evenodd" clip-rule="evenodd" d="M696.814 580.863C708.769 523.666 734.556 471.425 772.169 437.097C814.332 398.614 868.624 377.23 918.524 366.356C945.049 360.58 1002.53 344.92 1016.05 389.739C1029.57 434.557 990.484 478.724 967.989 503.038C940.688 532.502 911.252 560.951 881.851 587.387C856.307 610.373 829.05 633.873 801.382 651.623C785.777 661.693 769.522 669.914 752.808 676.191C740.432 680.801 724.695 687.677 711.719 684.245C678.992 675.579 691.096 608.211 696.814 580.863Z" stroke="var(--stroke-0, #FF8062)" stroke-width="2"/>
<path id="Shape_14" fill-rule="evenodd" clip-rule="evenodd" d="M721.457 563.735C747.688 455.57 830.797 402.372 910.817 383.829C929.412 379.525 981.538 364.006 991.932 397.049C1002 429.085 969.972 467.078 954.975 485.078C908.506 540.856 851.094 582.213 796.691 623.184C779.71 635.972 749.084 663.724 728.019 650.922C705.149 636.998 716.022 586.164 721.457 563.735Z" stroke="var(--stroke-0, #5ACEF2)" stroke-width="2"/>
<path id="Shape_15" fill-rule="evenodd" clip-rule="evenodd" d="M748.326 542.917C771.138 463.26 837.489 417.575 898.492 402.514C913.433 398.829 951.381 387.355 962.698 409.584C973.17 430.146 948.178 459.941 938.828 471.781C918.012 498.145 893.342 519.865 868.971 540.741C846.437 560.055 823.66 579.853 799.949 596.188C787.46 604.787 764.037 623.135 749.845 609.857C734.566 595.574 743.261 560.604 748.326 542.917Z" stroke="var(--stroke-0, #5ACEF2)" stroke-width="2"/>
<path id="Shape_16" fill-rule="evenodd" clip-rule="evenodd" d="M777.935 519.644C795.322 467.625 841.889 433.846 882.966 422.621C894.02 419.608 917.909 411.789 927.234 425.681C935.818 438.475 921.983 457.231 915.843 465.893C888.63 504.287 848.779 538.583 812.266 559.647C803.086 564.942 786.583 575.336 777.14 564.648C767.453 553.671 773.941 531.588 777.935 519.644Z" stroke="var(--stroke-0, #5BE7C3)" stroke-width="2"/>
<path id="Shape_17" fill-rule="evenodd" clip-rule="evenodd" d="M809.345 497.793C819.142 471.962 844.749 452.474 865.96 446.27C880.888 441.908 898.832 445.676 885.822 468.161C872.898 490.474 848.918 510.853 828.593 519.888C813.086 526.778 800.932 519.98 809.345 497.793Z" stroke="var(--stroke-0, #F1B170)" stroke-width="2"/>
<path id="Shape_18" fill-rule="evenodd" clip-rule="evenodd" d="M14.8456 676.697C14.2172 625.666 -6.34109 572.629 3.81186 520.631C12.1489 477.925 54.1214 474.36 79.3009 455.012C99.3099 439.64 110.665 412.41 121.486 386.284C131.209 362.828 139.941 338.667 150.183 315.597C156.814 300.683 168.199 271.396 182.577 270.867C196.342 270.357 208.964 293.18 216.959 306.67C227.384 324.256 236.627 343.003 246.75 360.869C263.81 391.005 284.279 413.311 307.717 434.423C334.389 458.444 361.502 481.645 389.055 504.025C409.341 520.553 429.765 536.956 449.265 555.116C461.496 566.511 488.491 587.89 488.615 608.897C488.674 618.92 481.475 630.021 476.621 638.033C468.408 651.596 459.047 663.996 449.656 676.129C432.165 698.729 413.932 720.304 395.898 742.14C372.489 770.48 350.13 798.357 329.552 830.53C308.276 863.833 287.951 898.233 267.21 932.162C253.163 955.148 239.131 980.961 218.869 995.065C193.492 1012.7 172.661 994.105 146.997 993.89C124.92 993.701 126.548 926.207 123.742 907.44C120.927 888.444 114.722 870.761 112.318 851.72C109.319 827.951 109.28 803.633 108.543 779.609C107.647 750.225 107.291 722.25 83.4867 711.045C69.9396 704.678 55.2841 703.339 41.262 699.526C32.1778 697.051 15.0435 692.82 14.8456 676.697Z" stroke="var(--stroke-0, #FF8062)" stroke-width="2"/>
<path id="Shape_19" fill-rule="evenodd" clip-rule="evenodd" d="M25.6993 667.619C23.3851 624.842 9.71338 570.09 22.6418 525.933C33.6872 488.198 68.2308 483.307 91.4911 463.484C110.693 447.135 119.241 420.38 128.839 394.097C136.54 373.012 144.008 351.725 152.749 331.314C159.191 316.273 169.027 290.878 182.421 287.765C194.463 284.966 207.376 307.385 214.135 318.79C223.997 335.441 232.43 353.523 241.142 371.227C256.449 402.324 272.123 430.288 294.526 453.132C317.028 476.073 341.646 493.227 366.527 511.081C385.991 525.05 405.356 539.425 423.85 555.552C437.626 567.559 457.432 582.928 463.735 604.339C468.725 621.277 443.418 649.386 435.956 659.306C420.594 679.704 404.316 698.853 388.008 717.884C368.127 741.074 347.612 761.354 330.055 787.808C298.653 835.104 272.405 894.001 231.999 929.153C207.629 950.355 180.509 955.777 153.403 952.605C142.67 951.349 140.093 931.357 138.74 919.697C136.49 900.326 136.208 880.621 134.479 861.172C132.858 842.965 129.261 825.667 126.362 807.813C123.428 789.724 122.606 771.19 120.445 752.977C119.107 741.669 117.784 728.511 111.932 719.421C105.876 710.01 95.8865 706.066 87.1552 703.071C70.758 697.499 27.3345 697.807 25.6993 667.619Z" stroke="var(--stroke-0, #5BE7C3)" stroke-width="2"/>
<path id="Shape_20" fill-rule="evenodd" clip-rule="evenodd" d="M39.6683 649.712C35.7764 610.446 30.3278 561.539 46.1828 525.363C59.1425 495.782 86.7822 489.401 106.524 470.127C122.944 454.1 129.147 428.608 137.297 404.919C143.985 385.488 150.708 365.973 158.814 347.483C164.962 333.46 172.884 314.447 185.09 309.555C195.527 305.375 207.316 324.101 213.102 333.421C222.953 349.305 230.985 367.103 238.962 384.665C252.011 413.403 264.019 444.1 282.59 467.476C300.637 490.159 322.074 503.548 343.913 518.603C360.641 530.137 377.265 542.115 393.025 555.87C405.127 566.425 420.125 578.932 426.431 596.495C431.885 611.641 417.884 629.569 410.888 640.255C399.337 657.889 386.516 674.067 373.873 690.31C360.23 707.834 345.118 723.999 331.916 741.953C304.152 779.737 281.971 821.57 247.752 850.517C225.591 869.268 195.769 886.302 169.572 883.238C150.733 881.031 151.972 826.024 150.163 808.449C147.188 779.711 141.442 749.517 132.315 723.045C124.476 700.362 105.85 693.367 88.7158 688.279C77.9821 685.085 66.7329 683.361 56.3513 678.423C44.3336 672.702 41.2994 666.171 39.6683 649.712Z" stroke="var(--stroke-0, #5ACEF2)" stroke-width="2"/>
<path id="Shape_21" fill-rule="evenodd" clip-rule="evenodd" d="M52.6983 631.307C50.3811 598.109 50.9021 558.852 65.9122 530.135C79.0664 504.982 102.487 498.359 119.145 478.544C132.145 463.085 137.251 437.879 144.242 417.435C152.787 392.439 164.76 346.272 186.315 336.865C206.367 328.12 227.336 383.982 234.595 400.64C246.087 427.006 255.699 455.919 269.637 480.267C281.64 501.228 297.722 512.816 314.791 525.268C336.555 541.173 369.597 560.031 381.233 591.028C389.906 614.125 361.702 648.462 352.071 664.465C341.998 681.181 334.411 700.996 324.016 717.124C307.611 742.572 281.03 763.062 259.083 778.698C237.746 793.908 210.039 810.742 185.834 809.74C169.926 809.085 166.899 776.673 163.505 760.841C158.642 738.334 152.177 718.165 138.288 702.857C124.151 687.273 107.489 679.93 89.9729 673.504C80.9818 670.229 70.7253 667.675 62.6819 661.059C53.795 653.86 53.5915 644.067 52.6983 631.307Z" stroke="var(--stroke-0, #F1B170)" stroke-width="2"/>
<path id="Shape_22" fill-rule="evenodd" clip-rule="evenodd" d="M68.5745 612.172C68.7031 583.491 73.6738 552.908 88.4126 530.785C100.688 512.358 119.903 506.198 131.655 487.361C140.963 472.447 145.701 451.51 151.933 434.191C159.555 412.968 170.332 375.892 189.285 368.527C207.782 361.357 224.143 402.193 231.236 418.352C241.622 442.046 250.03 467.161 260.511 490.789C268.721 509.327 278.761 521.275 292.13 533.223C307.823 547.257 329.719 562.803 338.102 586.02C344.146 602.831 329.516 629.693 324.204 644.502C320.643 654.449 317.384 664.552 315.593 675.333C314.199 683.729 314.06 691.498 310.019 698.708C299.846 716.841 277.539 719.207 262.405 725.185C242.305 733.117 220.978 742.132 199.943 743.853C187.014 744.928 180.417 729.213 173.037 718.158C164.318 705.089 151.973 695.69 141.19 685.828C126.961 672.791 111.475 664.682 95.4556 656.378C88.2296 652.63 79.7424 648.954 74.1436 641.504C68.2976 633.78 68.53 622.523 68.5745 612.172Z" stroke="var(--stroke-0, #FF8062)" stroke-width="2"/>
<path id="Shape_23" fill-rule="evenodd" clip-rule="evenodd" d="M85.2491 595.145C87.8038 571.058 95.765 548.036 109.212 531.008C119.52 517.934 133.209 510.574 141.482 494.867C149.191 480.225 154.563 463.576 160.93 447.921C167.668 431.37 177.679 403.707 193.22 399.203C209.969 394.353 222.871 422.258 230.015 437.723C239.041 457.268 245.898 478.296 253.968 498.514C260.048 513.583 267.803 527.365 276.975 539.401C286.595 552.088 299.641 564.24 304.507 581.686C308.81 597.139 300.76 615.834 299.339 631.502C297.819 648.242 300.482 665.826 292.056 680.2C274.678 709.844 231.065 704.346 206.132 704.98C181.53 705.634 161.751 687.495 141.844 670.238C128.694 658.845 114.999 649.197 101.518 638.581C87.7741 627.75 83.0014 616.343 85.2491 595.145Z" stroke="var(--stroke-0, #5ACEF2)" stroke-width="2"/>
<path id="Shape_24" fill-rule="evenodd" clip-rule="evenodd" d="M100.741 581.359C108.296 546.463 131.892 527.916 148.76 501.545C162.562 479.956 172.911 435.246 196.155 429.332C222.544 422.62 238.343 481.859 247.517 504.718C257.698 530.068 275.829 550.689 283.369 577.525C287.332 591.61 283.929 604.754 281.818 618.832C279.505 634.291 277.766 650.097 269.78 662.541C254.061 687.028 223.362 686.858 201.252 687.532C178.365 688.232 158.118 671.451 139.883 654.703C120.542 636.967 93.0033 617.145 100.741 581.359Z" stroke="var(--stroke-0, #5ACEF2)" stroke-width="2"/>
<path id="Shape_25" fill-rule="evenodd" clip-rule="evenodd" d="M113.395 571.896C121.908 547.034 139.797 526.822 154.312 507.741C166.428 491.834 179.462 459.811 197.934 457.529C219.646 454.836 232.804 489.031 241.347 509.998C249.755 530.6 261.87 552.354 266.526 574.966C271.381 598.521 258.452 630.244 246.122 646.912C232.37 665.498 209.87 672.366 190.564 671.624C170.35 670.87 151.802 655.509 136.493 639.576C120.126 622.544 103.495 600.758 113.395 571.896Z" stroke="var(--stroke-0, #FF8062)" stroke-width="2"/>
<path id="Shape_26" fill-rule="evenodd" clip-rule="evenodd" d="M125.136 567.215C133.268 546.537 147.363 529.044 160.359 513.44C170.389 501.394 185.189 480.911 199.658 480.409C215.577 479.855 229.068 497.048 235.396 514.672C241.635 532.054 248.208 553.846 249.142 572.916C251.17 614.443 209.883 660.96 178.88 657.175C149.486 653.585 108.923 608.416 125.136 567.215Z" stroke="var(--stroke-0, #5ACEF2)" stroke-width="2"/>
<path id="Shape_27" fill-rule="evenodd" clip-rule="evenodd" d="M135.994 564.935C147.212 537.993 174.461 499.582 199.687 498.67C228.643 497.628 235.912 540.371 232.138 571.347C228.304 602.961 194.92 648.722 168.3 642.538C142.32 636.505 122.7 596.889 135.994 564.935Z" stroke="var(--stroke-0, #5BE7C3)" stroke-width="2"/>
<path id="Shape_28" fill-rule="evenodd" clip-rule="evenodd" d="M147.459 560.579C156.957 538.02 177.225 509.843 198.363 508.99C223.551 507.981 223.076 544.068 217.364 566.529C211.425 589.849 185.267 629.68 163.213 623.391C141.768 617.252 138.357 582.2 147.459 560.579Z" stroke="var(--stroke-0, #FF8062)" stroke-width="2"/>
<path id="Shape_29" fill-rule="evenodd" clip-rule="evenodd" d="M157.445 557.982C163.714 541.886 179.405 521.541 194.321 520.89C212.553 520.108 209.008 548.731 204.298 562.546C198.699 578.984 179.931 607.548 164.181 602.919C148.674 598.362 152.273 571.245 157.445 557.982Z" stroke="var(--stroke-0, #5ACEF2)" stroke-width="2"/>
<path id="Shape_30" fill-rule="evenodd" clip-rule="evenodd" d="M1015.1 1477.69C974.747 1509.98 929.127 1536.64 886.108 1563.74C823.241 1603.33 759.447 1641.86 693.39 1671.35C657.974 1687.16 612.082 1709.95 574.081 1697.56C560.187 1693.04 547.516 1679.35 535.059 1670.45C517.881 1658.18 500.45 1646.52 483.049 1634.83C448.144 1611.41 413.129 1588.22 378.822 1563.29C362.303 1551.29 346.274 1536.17 329.076 1525.92C319.026 1519.93 307 1522.74 296.261 1523.11C271.386 1524 246.525 1525.67 221.665 1527.09C191.256 1528.83 160.779 1530.68 130.336 1529.99C116.605 1529.68 82.9777 1532.89 75.419 1517.29C71.3523 1508.89 80.9369 1493.75 85.38 1486.74C93.538 1473.85 102.915 1462.25 112.167 1450.76C133.566 1424.18 156.291 1398.88 175.312 1369.2C185.085 1353.94 197.889 1335.29 191.509 1314.46C185.07 1293.42 173.915 1275.2 167.109 1254.23C159.273 1230.1 156.024 1204.99 152.324 1179.41C149.584 1160.5 143.205 1143.74 137.206 1126.31C130.579 1107.04 123.713 1087.6 119.112 1067.28C116.07 1053.86 111.162 1029.71 121.801 1021.21C136.919 1009.13 165.267 1018.91 182.499 1022.47C206.314 1027.38 229.956 1033.64 253.707 1039.03C270.95 1042.95 288.252 1047.25 305.781 1047.71C334.04 1048.44 362.392 1045.89 390.576 1043.51C442.764 1039.11 494.578 1033.14 546.942 1033.14C592.818 1033.14 698.834 1103.14 723.65 1115.47C773.183 1140.08 824.033 1163.4 870.906 1196.14C883.587 1205.01 903.102 1216.82 909.775 1235.06C913.891 1246.3 911.999 1252.8 921.707 1260.05C934.952 1269.93 951.922 1273.81 966.584 1278.23C990.196 1285.35 1013.99 1291.38 1037.71 1297.83C1085.69 1310.84 1133.34 1325.55 1181.12 1339.7C1195.56 1343.98 1213.04 1344.93 1226.81 1352.47C1235.69 1357.31 1234.76 1363.4 1227.89 1370.76C1215.84 1383.66 1198.95 1390.83 1184.72 1398.19C1163.86 1408.98 1142.66 1418.6 1121.45 1428.08C1100.24 1437.57 1078.92 1446.76 1057.7 1456.26C1043.68 1462.52 1027.7 1467.61 1015.1 1477.69Z" stroke="var(--stroke-0, #FF8062)" stroke-width="2"/>
<path id="Shape_31" fill-rule="evenodd" clip-rule="evenodd" d="M981.893 1470.59C939.206 1502.95 891.823 1528.73 846.144 1553.88C787.683 1586.09 727.899 1616.28 666.301 1636.41C630.135 1648.23 587.463 1661.27 550.508 1647.72C537.325 1642.89 527.475 1632.02 516.175 1622.43C503.293 1611.49 489.917 1601.46 476.54 1591.59C449.004 1571.27 421.177 1551.65 393.059 1532.72C378.166 1522.65 361.772 1509.17 344.947 1505.67C331.571 1502.89 316.376 1506.92 302.939 1508.09C278.742 1510.19 254.55 1512.37 230.343 1514.21C202.411 1516.34 174.399 1518.3 146.407 1517.96C130.806 1517.77 104.022 1520.9 92.9891 1507.6C83.3628 1496 118.41 1454.03 124.573 1446.05C143.821 1421.16 164.064 1397.45 181.979 1370.83C192.567 1355.13 205.458 1336.03 209.922 1315.22C213.722 1297.49 206.389 1277.28 202.059 1260.89C196.644 1240.35 192.274 1219.07 185.982 1198.97C180.379 1181.06 171.461 1165.1 163.628 1148.82C155.013 1130.91 146.288 1112.7 139.892 1093.16C135.973 1081.14 129.488 1061 137.276 1049.54C146.273 1036.33 174.008 1044.97 185.408 1046.85C208.534 1050.72 231.483 1056.48 254.451 1061.63C292.6 1070.19 328.97 1077.67 367.817 1075.88C418.406 1073.54 468.945 1068.03 519.524 1064.98C538.202 1063.84 557.177 1061.55 575.87 1062.79C586.586 1063.5 594.746 1067.82 600.978 1077.56C609.49 1090.85 629.094 1098.21 642.728 1105.84C663.988 1117.73 685.514 1128.78 706.981 1139.98C754.107 1164.58 802.14 1188.28 846.833 1220.1C860.972 1230.16 877.163 1241.38 887.622 1258C893.458 1267.27 891.987 1276.2 895.549 1286.05C900.265 1299.01 915.772 1304.85 925.042 1309.09C942.932 1317.28 961.556 1322.77 980.035 1327.91C1021.85 1339.54 1063.76 1347.19 1106.26 1352.82C1116.22 1354.13 1155.43 1358.67 1134.83 1380.51C1112.08 1404.66 1079.22 1416.49 1052.43 1430.1C1028.3 1442.33 1004.15 1453.71 981.893 1470.59Z" stroke="var(--stroke-0, #5BE7C3)" stroke-width="2"/>
<path id="Shape_32" fill-rule="evenodd" clip-rule="evenodd" d="M922.901 1464.6C882.777 1493.07 838.328 1514.31 795.115 1534.63C742.676 1559.28 688.923 1581.26 633.925 1593.57C599.376 1601.3 561.286 1607.24 526.97 1594.4C503.535 1585.63 485.407 1561.94 464.825 1545.63C444.242 1529.33 422.826 1514.03 400.77 1501.27C387.082 1493.36 372.356 1485.38 357.125 1486.43C320.091 1488.96 283.102 1495 246.028 1497.94C221.503 1499.9 196.928 1501.51 172.328 1501.03C157.493 1500.74 137.114 1501.91 123.981 1491.62C109.464 1480.24 186.76 1383.04 194.066 1372.1C212.382 1344.67 234.562 1308.26 231.02 1269.25C227.633 1231.96 212.952 1204.11 196.347 1174.89C186.924 1158.27 156.705 1113.86 167.904 1092.24C174.302 1079.89 195.39 1084.17 205.409 1085.01C225.153 1086.67 244.788 1090.23 264.429 1093.33C293.066 1097.82 322.492 1104.75 351.253 1106.78C371.28 1108.19 391.426 1106.3 411.488 1106.26C440.254 1106.21 469.021 1106.5 497.787 1106.84C521.94 1107.12 546.297 1106.84 570.367 1109.89C585.33 1111.77 596.688 1116 607.421 1127.94C616.76 1138.32 630.85 1144.4 642.753 1151.01C662.413 1161.91 682.332 1172.01 702.185 1182.28C743.752 1203.78 785.795 1224.83 825.582 1251.7C843.744 1263.96 874.281 1281.12 878.541 1310.85C880.079 1321.56 881.21 1326.2 889.145 1332.29C900.409 1340.94 913.899 1344.84 926.536 1348.23C955.997 1356.13 986.31 1354.95 1015.72 1362.76C1027.7 1365.98 1043.34 1372.93 1029.66 1388.84C1013.71 1407.44 990.481 1417.67 971.367 1429.17C961.824 1434.9 951.994 1440.27 942.933 1447.27C935.975 1452.67 930.018 1459.58 922.901 1464.6Z" stroke="var(--stroke-0, #5ACEF2)" stroke-width="2"/>
<path id="Shape_33" fill-rule="evenodd" clip-rule="evenodd" d="M846.905 1455.71C809.836 1478.84 769.577 1495.65 730.042 1510.8C686.129 1527.62 641.156 1541.54 595.589 1547.47C564.125 1551.57 530.601 1552.78 500.063 1540.22C480.751 1532.27 467.658 1515.56 451.04 1501.54C425.959 1480.35 398.823 1463.57 368.691 1467.65C334.909 1472.22 301.017 1475.65 267.014 1477.94C246.504 1479.32 225.914 1480.35 205.379 1479.39C192.395 1478.79 175.668 1477.77 164.372 1470.02C149.259 1459.63 206.027 1380.57 213.104 1369.04C230.653 1340.47 243.518 1310.48 251.035 1275.08C257.165 1246.18 244.642 1223.47 231.722 1201.86C223.691 1188.44 197.738 1154.69 205.864 1137.26C210.321 1127.65 225.008 1128.14 232.896 1127.65C247.93 1126.72 263.028 1127.69 278.062 1128.12C300.261 1128.77 323.891 1124.27 345.902 1127.9C394.683 1135.91 443.34 1142.85 492.422 1148.34C519.479 1151.37 546.7 1154.12 573.514 1159.95C583.14 1162.04 593.083 1164.26 602.205 1169C608.073 1172.05 611.272 1177.23 616.223 1181.49C639.834 1201.74 670.654 1212.17 697.246 1225.15C732.597 1242.41 768.136 1259.4 802.547 1279.78C820.646 1290.51 845.925 1302.83 858.379 1324.71C862.142 1331.33 860.538 1336.62 862.905 1342.97C865.628 1350.31 873.903 1352.49 879.246 1354.54C891.373 1359.18 942.134 1366.2 918.742 1393.42C907.58 1406.39 893.358 1414.72 880.776 1424.91C876.22 1428.6 871.778 1432.31 867.98 1437.3C861.627 1445.65 855.368 1450.42 846.905 1455.71Z" stroke="var(--stroke-0, #F1B170)" stroke-width="2"/>
<path id="Shape_34" fill-rule="evenodd" clip-rule="evenodd" d="M765.932 1445.7C692.752 1483.11 606.988 1508.6 527.203 1503.66C500.671 1502.01 472.125 1496.51 449.126 1477.69C435.565 1466.57 424.727 1454.02 408.437 1450C396.677 1447.11 384.014 1450.4 372.184 1451.59C355.051 1453.31 337.907 1454.86 320.748 1456.11C299.476 1457.63 278.134 1458.81 256.822 1458.18C241.594 1457.73 220.564 1458.24 207.336 1447.45C191.541 1434.58 231.744 1374.19 237.401 1363.44C251.111 1337.36 260.722 1312.09 264.196 1280.67C265.218 1271.51 268.661 1262.12 268.215 1252.9C267.748 1243.47 263.347 1235.08 259.283 1227.67C253.969 1217.96 235.53 1194.92 240.81 1183.08C243.727 1176.54 254.678 1175.71 260.355 1174.33C271.004 1171.71 281.806 1170.3 292.519 1168.22C310.695 1164.68 328.742 1153.14 346.982 1153.46C396.032 1154.33 445.791 1174.39 493.859 1185.41C522.435 1191.99 551.205 1197.95 579.434 1206.85C588.366 1209.67 597.565 1212.59 606.055 1217.37C611.98 1220.7 615.786 1226.65 621.274 1230.38C642.318 1244.73 666.518 1253.43 689.115 1263.09C718.45 1275.64 747.885 1287.82 777.017 1301.19C795.278 1309.57 818.758 1316.94 834.493 1332.48C845.985 1343.83 838.13 1347.22 832.066 1357.79C828.97 1363.18 829.684 1368.49 828.34 1374.59C826.419 1383.31 820.991 1389.58 815.9 1395.22C808.878 1403 799.525 1409.42 793.784 1418.97C791.759 1422.33 791.854 1426.5 790.216 1429.43C785.453 1437.97 772.814 1442.18 765.932 1445.7Z" stroke="var(--stroke-0, #FF8062)" stroke-width="2"/>
<path id="Shape_35" fill-rule="evenodd" clip-rule="evenodd" d="M688.126 1432.37C628.733 1455.89 562.647 1469.28 499.865 1463.07C478.022 1460.9 456.044 1455.87 435.696 1444.82C426.439 1439.81 419.489 1434.22 409.345 1433.92C385.808 1433.23 362.196 1435.66 338.663 1436.24C321.822 1436.66 304.897 1436.81 288.096 1435.02C276.862 1433.83 261.671 1432.4 252.467 1423.32C239.094 1410.08 263.236 1365.09 268.149 1352.66C276.292 1332.04 284.371 1309.12 281.142 1285.27C280.151 1277.97 278.398 1271.53 278.17 1264.09C277.952 1257.7 278.561 1251.8 276.842 1245.68C274.717 1238.11 265.267 1226.35 268.516 1219.38C270.73 1214.61 277.298 1214.39 281.667 1212.87C288.752 1210.4 295.671 1207.15 302.351 1203.17C309.385 1198.96 315.373 1192.45 322.659 1188.97C334.488 1183.33 347.727 1182.8 360.16 1182.82C409.766 1182.93 460.002 1195.84 508.35 1209.33C533.527 1216.36 558.843 1223.85 583.312 1234.51C590.742 1237.75 599.162 1241 605.695 1246.98C609.772 1250.7 612.536 1255.37 617.167 1258.17C656.728 1282.07 702.466 1290.95 744.464 1308.22C755.396 1312.71 815.979 1335.42 784.303 1356.78C765.06 1369.77 744.727 1375.67 727.168 1393.42C721.818 1398.82 718.252 1403.29 716.162 1411.53C714.785 1417.01 718.098 1414.23 713.472 1419.96C707.86 1426.85 695.046 1429.63 688.126 1432.37Z" stroke="var(--stroke-0, #F1B170)" stroke-width="2"/>
<path id="Shape_36" fill-rule="evenodd" clip-rule="evenodd" d="M626.37 1418.46C556.834 1437.66 483.194 1438.58 412.56 1421.56C394.753 1417.27 376.222 1418.29 358.197 1417.21C340.684 1416.16 309.546 1418.33 296.826 1400.57C287.602 1387.69 297.611 1360.33 301.073 1345.92C305.483 1327.57 309.337 1308.62 302.096 1290.79C297.854 1280.36 292.043 1270.42 287.493 1260.08C285.317 1255.14 280.837 1247.58 282.705 1242.9C285.794 1235.18 300.248 1231.93 307.261 1228.29C329.677 1216.66 353.414 1213.69 377.379 1213.78C421.644 1213.93 466.138 1221.91 509.559 1232.74C529.536 1237.73 549.791 1243.04 569.057 1251.71C579.96 1256.61 588.001 1266.06 598.412 1271.66C631.933 1289.72 667.948 1299.37 702.046 1315.88C711.916 1320.66 748.78 1336.58 730.209 1355.34C712.228 1373.51 686.003 1371.35 667.308 1388.44C665.192 1390.4 662.574 1392.74 661.347 1395.91C660.622 1397.8 661.899 1401.4 661.347 1402.48C655.606 1414.17 635.197 1416.03 626.37 1418.46Z" stroke="var(--stroke-0, #5ACEF2)" stroke-width="2"/>
<path id="Shape_37" fill-rule="evenodd" clip-rule="evenodd" d="M581.319 1405.77C545.644 1412.23 509.186 1413.83 472.911 1414.24C453.082 1414.46 431.297 1416.12 411.896 1409.5C399.978 1405.42 388.467 1401.85 376.182 1399.28C362.963 1396.51 341.68 1394.5 333.63 1379.5C327.617 1368.29 331.738 1345.25 331.957 1331.62C332.19 1316.67 329.866 1305.59 321.866 1294.89C316.836 1288.15 293.76 1263.7 296.427 1256.65C298.964 1249.94 315.043 1248.91 321.995 1247.16C343.969 1241.63 366.236 1239.7 388.587 1240C423.203 1240.46 457.949 1245.12 492.024 1253.12C506.112 1256.44 520.672 1259.89 534.129 1266.53C543.191 1271.01 550.749 1278.95 559.752 1283.58C585.535 1296.86 612.797 1305.88 638.668 1319.41C646.971 1323.76 674.025 1335.33 667.54 1353.17C662.132 1368.07 643.739 1372.6 634.701 1382.58C619.327 1399.61 600.924 1402.23 581.319 1405.77Z" stroke="var(--stroke-0, #5ACEF2)" stroke-width="2"/>
<path id="Shape_38" fill-rule="evenodd" clip-rule="evenodd" d="M558.845 1397.22C530.546 1401.49 501.589 1403.36 472.875 1403.45C454.343 1403.51 434.793 1403.84 416.608 1398.35C407.473 1395.59 399.535 1389.14 390.89 1384.54C381.988 1379.81 369.703 1374.53 365.855 1363.69C362.24 1353.49 363.59 1338.63 360.415 1326.34C357.591 1315.43 351.681 1308.7 345.316 1301.33C341.261 1296.62 320.435 1276.23 322.843 1271.73C325.425 1266.9 337.932 1267.3 344.441 1266.63C362.373 1264.76 380.368 1264.17 398.348 1264.85C422.889 1265.84 447.617 1268.61 471.732 1274.88C488.839 1279.32 501.742 1289.91 517.692 1297.67C538.355 1307.75 559.76 1315.72 580.225 1326.75C590.423 1332.24 605.517 1339.31 610.74 1353.49C612.747 1358.93 614.696 1372.75 612.461 1378.19C609.775 1384.72 599.78 1387.49 595.062 1389.17C583.242 1393.36 570.873 1395.4 558.845 1397.22Z" stroke="var(--stroke-0, #FF8062)" stroke-width="2"/>
<path id="Shape_39" fill-rule="evenodd" clip-rule="evenodd" d="M532.334 1386.78C496.958 1392.03 456.989 1396.49 421.505 1385.92C407.165 1381.66 392.885 1369.02 387.038 1351.79C384.008 1342.88 383.356 1332.28 378.831 1323.65C375.481 1317.27 371.218 1311.51 367.013 1306.14C364.645 1303.11 349.471 1286.49 352.397 1283.53C355.486 1280.4 363.066 1281.42 368.242 1281.34C380.642 1281.15 393.092 1281.78 405.453 1283.02C419.664 1284.45 434.211 1286.3 447.993 1291.32C459.111 1295.39 469.241 1303.95 480.068 1309.04C508.53 1322.52 538.522 1333.07 565.242 1353.02C570.926 1357.26 582.167 1363.61 575.338 1373.19C566.841 1385.13 543.264 1385.17 532.334 1386.78Z" stroke="var(--stroke-0, #F1B170)" stroke-width="2"/>
<path id="Shape_40" fill-rule="evenodd" clip-rule="evenodd" d="M501.497 1377.32C476.307 1381 448.363 1382.72 423.073 1375.15C410.266 1371.32 398.841 1363.33 393.263 1347.87C389.272 1336.86 388.194 1324.56 382.741 1313.98C380.81 1310.24 373.715 1299.76 377.213 1297.47C384.697 1292.55 401.4 1298.22 411.783 1300.8C427.408 1304.71 440.455 1315.66 455.313 1322.15C478.103 1332.11 506.98 1337.43 527.75 1354.39C547.766 1370.8 508.846 1376.24 501.497 1377.32Z" stroke="var(--stroke-0, #5BE7C3)" stroke-width="2"/>
<path id="Shape_41" fill-rule="evenodd" clip-rule="evenodd" d="M472.693 1368.33C451.32 1371.64 413.309 1373.27 401.116 1346.66C398.854 1341.72 392.607 1314.45 398.643 1312.01C403.619 1310.01 411.427 1313.31 417.048 1316.4C427.505 1322.11 437.315 1328.33 448.122 1333.05C457.322 1337.06 466.742 1340.75 475.822 1345.41C479.676 1347.37 486.919 1349.74 489.337 1354.19C495.844 1366.17 479.201 1367.33 472.693 1368.33Z" fill="var(--fill-0, #01002D)"/>
</g>
</svg>
