<svg preserveAspectRatio="none" width="100%" height="100%" overflow="visible" style="display: block;" viewBox="0 0 1392.14 1669.11" fill="none" xmlns="http://www.w3.org/2000/svg">
<g id="Whangaehu">
<path id="Shape" fill-rule="evenodd" clip-rule="evenodd" d="M510.526 603.472C510.447 581.491 478.815 556.773 465.303 544.029C438.586 518.824 410.799 495.548 383.27 471.9C355.741 448.252 328.137 424.669 301.887 398.707C284.842 381.854 264.814 362.873 253.255 338.809C228.629 287.527 306.272 295.142 326.383 294.02C377.547 291.155 436.233 292.462 484.191 265.757C512.82 249.815 524.236 223.077 518.087 184.109C516.105 171.436 510.239 156.852 515.208 144.506C520.515 131.32 532.724 123.711 542.857 118.608C579.815 100.018 622.308 97.8644 661.412 95.5311C703.578 92.967 746.14 93.717 788.009 93.5183C805.762 93.4349 824.303 85.1848 841.209 78.4796C863.372 69.6911 885.273 59.8192 907.252 50.2743C955.607 29.3254 1005.43 7.26104 1056.59 1.94048C1088.63 -1.39288 1123.65 3.11358 1148.53 32.1074C1161.03 46.6653 1167.57 68.3065 1174.8 87.531C1183.54 110.756 1191.94 134.205 1201.25 157.064C1231.24 230.686 1274.06 302.629 1343.56 306.245C1354.08 306.79 1364.4 305.014 1374.87 304.681C1381.53 304.475 1387.46 306.559 1389.94 315.578C1396.17 338.2 1376.59 373.912 1368.57 391.861C1350.99 431.15 1331.17 468.676 1312.61 507.176C1300.32 532.638 1279.06 567.433 1278.84 598.369C1278.64 625.934 1306.98 645.857 1322.41 659.434C1336.87 672.146 1363.07 689.934 1364.65 715.793C1365.42 728.332 1359.03 738.723 1352.35 746.787C1340.65 760.89 1327.18 770.839 1316.65 786.929C1299.4 813.326 1284.98 849.647 1287.32 885.218C1288.95 909.866 1299.82 926.007 1313.65 941.437C1319.46 947.924 1324.17 952.514 1324.48 963.046C1324.98 979.77 1319.91 997.469 1315.74 1012.98C1300.82 1068.47 1279.62 1122.13 1256.04 1172.23C1244.26 1197.27 1231.53 1222.23 1215.91 1243.59C1205.67 1257.62 1191.87 1274.31 1176.27 1274.29C1158.2 1274.29 1139.08 1265.86 1121.51 1259.55C1088.7 1247.76 1056.29 1234.13 1024.01 1220.15C949.36 1187.8 875.409 1152.84 802.16 1115.25C750.565 1088.73 697.875 1062.17 649.366 1026.92C639.906 1019.99 630.977 1011.92 622.699 1002.81C613.855 993.238 602.88 988.956 591.751 985.764C522.68 965.95 447.01 981.161 377.651 990.7C360.047 993.117 342.442 995.546 324.788 997.238C309.611 998.694 291.442 1002.87 276.691 996.597C247.626 984.258 273.034 938.776 283.777 920.244C321.597 854.993 370.393 799.788 415.621 743.428C437.125 716.588 458.792 689.819 479.127 661.46C489.716 646.716 510.595 622.741 510.526 603.472Z" stroke="var(--stroke-0, #5BE7C3)" stroke-width="2"/>
<path id="Shape_2" fill-rule="evenodd" clip-rule="evenodd" d="M523.559 599.76C511.967 576.501 491.628 559.31 474.745 543.131C450.45 519.84 425.391 497.843 400.709 475.212C377.37 453.811 353.982 432.166 332.369 407.863C319.19 393.042 302.654 375.319 296.412 353.399C282.871 305.888 355.717 313.096 373.701 311.853C418.41 308.777 469.098 308.073 510.46 283.058C536.287 267.436 546.898 241.531 541.389 205.566C539.485 193.122 536.054 182.499 540.398 170.12C545.42 155.792 556.973 146.86 567.564 140.555C600.74 120.801 639.955 116.604 675.917 113.112C713.069 109.505 751.778 106.961 787.736 109.601C802.115 110.652 818.665 104.686 832.895 100.111C854.791 93.0632 876.464 84.9321 898.25 77.3712C942.528 61.9933 987.955 47.1793 1034.02 45.4941C1067.27 44.2767 1101.95 50.8763 1129.61 76.3845C1157.65 102.252 1170.09 142.349 1185.64 180.468C1212.5 246.369 1248.76 326.494 1310.89 340.418C1320.31 342.532 1329.37 341.385 1338.78 341.904C1343.62 342.167 1349.12 343 1351.58 349.17C1357.95 365.189 1340.49 394.477 1334.62 406.748C1318.38 440.656 1300.13 472.905 1283.12 506.16C1269.61 532.565 1252.48 561.905 1247.26 593.205C1240.92 631.189 1282.35 658.216 1296.92 684.96C1322.19 731.338 1274.32 757.762 1250.73 779.874C1223.63 805.261 1201.26 851.574 1225.56 890.852C1234.85 905.871 1246.28 914.822 1250.43 934.423C1256.92 965.076 1252.01 1000.11 1246.75 1030.41C1238.81 1075.96 1226.26 1121.02 1209.19 1162.18C1196.97 1191.66 1176.68 1237.87 1146.98 1234.41C1126.98 1232.1 1106.65 1223.64 1087.18 1216.17C1058.03 1204.99 1029.24 1192.25 1000.6 1179.01C934.505 1148.54 869.135 1114.93 805.05 1077.98C761.323 1052.75 639.35 949.66 630.172 945.982C602.807 935.025 571.694 936.954 543.482 938.652C505.953 940.907 468.612 946.751 431.301 952.165C413.541 954.728 395.691 957.861 377.836 959.124C365.128 960.021 348.439 960.79 337.307 951.236C315.58 932.597 339.786 889.949 349.797 871.905C380.464 816.589 419.258 768.687 455.631 719.708C473.481 695.661 491.604 671.652 507.807 645.676C514.342 635.187 530.724 614.126 523.559 599.76Z" stroke="var(--stroke-0, #5ACEF2)" stroke-width="2"/>
<path id="Shape_3" fill-rule="evenodd" clip-rule="evenodd" d="M539.597 587.839C507.938 541.294 464.243 506.678 426.531 467.806C407.603 448.289 388.556 428.241 372.231 404.995C363.738 392.907 353.134 377.621 351.498 360.771C347.126 315.694 412.783 321.79 432.435 320.078C470.429 316.758 513.352 314.239 547.822 291.237C568.881 277.175 579.252 254.095 575.316 223.76C573.571 210.3 570.854 198.866 575.316 185.65C579.837 172.261 589.257 162.814 598.795 155.732C626.205 135.363 660.268 128.851 691.129 123.999C727.332 118.348 763.806 116.142 800.259 117.398C832.186 118.481 863.959 106.297 895.132 98.266C936.428 87.633 978.473 78.346 1020.73 79.7496C1054.1 80.8649 1087.74 89.6263 1116.27 112.911C1145.26 136.626 1162.69 172.12 1178.41 210.422C1202.17 268.323 1231.77 345.914 1283.89 367.904C1291.47 371.109 1298.54 371.461 1306.35 372.019C1310.15 372.288 1315.05 372.372 1316.94 377.493C1321.47 389.824 1304.72 413.731 1300.04 422.063C1285.12 448.661 1268.94 474.061 1253.65 500.307C1239.37 524.81 1223.82 550.344 1214.95 579.058C1200.84 624.788 1245.96 651.528 1244.7 695.104C1243.91 722.158 1223.88 741.559 1208.01 754.98C1188.48 771.484 1160.35 782.334 1150.58 812.452C1143.3 834.884 1154.72 847.94 1163.52 864.963C1178.43 893.805 1179.45 932.901 1177.9 966.287C1175.81 1011.4 1167.63 1057.18 1153.72 1098.65C1147.41 1117.45 1139.69 1137 1128.31 1151.6C1117.66 1165.29 1107.58 1168.79 1093.34 1165.99C1049.75 1157.41 1005.74 1133.47 963.947 1112.09C911.432 1085.22 859.641 1055.56 809.396 1022.18C775.134 999.423 740.099 975.343 710.027 943.899C702.189 935.702 694.163 926.793 688.432 915.981C684.099 907.854 682.26 901.143 674.958 896.503C653.313 882.755 623.206 886.351 600.014 887.78C562.932 890.055 526.028 896.112 489.174 901.566C467.668 904.771 427.155 914.853 409.982 890.67C395.159 869.789 413.046 834.186 422.183 815.791C445.295 769.272 475.025 728.445 502.609 686.407C515.251 667.141 528.388 647.727 538.829 626.307C541.496 620.846 545.769 613.61 546.503 606.977C547.326 599.375 543.484 593.575 539.597 587.839Z" stroke="var(--stroke-0, #5BE7C3)" stroke-width="2"/>
<path id="Shape_4" fill-rule="evenodd" clip-rule="evenodd" d="M542.319 598.666C513.065 557.512 477.821 523.703 446.416 485.192C432.334 467.925 418.114 449.811 407.384 428.747C401.613 417.419 395.484 403.16 397.076 389.081C401.643 348.671 455.643 352.321 477.46 349.954C509.877 346.478 547.118 342.976 575.782 321.186C594.559 306.915 601.6 285.838 598.094 258.654C594.331 229.495 602.745 208.328 621.894 192.062C645.902 171.684 676.207 163.377 704.082 157.476C737.667 150.401 771.677 147.264 805.697 148.105C838.784 148.926 870.839 141.755 903.708 137.092C947.286 130.915 992.262 127.868 1035.35 140.53C1072.86 151.556 1106.75 175.853 1132.15 213.428C1158.68 252.644 1171.82 302.053 1193.36 345.439C1206.8 372.5 1225.53 408.298 1250.64 418.817C1259.02 422.326 1274.28 417.592 1267.59 434.853C1263.77 444.724 1256.61 453.384 1250.96 461.453C1241.83 474.493 1232.39 487.174 1223.1 500.034C1203.31 527.449 1182.11 555.447 1167.28 587.909C1148.59 628.78 1176.37 660.236 1172.99 701.678C1171.17 723.98 1159.18 741.78 1146.49 755.763C1138.29 764.82 1129.31 772.664 1120.14 779.983C1110.57 787.629 1099.24 793.453 1090.89 803.337C1078.99 817.404 1084.15 834.055 1086.39 852.239C1090.31 884.196 1091.18 916.658 1088.95 948.889C1086.24 988.394 1079.87 1029.03 1066.44 1064.93C1061.22 1078.9 1054.61 1093.72 1044.79 1103.09C1034.96 1112.46 1024.8 1111.82 1013.55 1109C980.164 1100.66 946.85 1081.26 915.181 1062.87C875.545 1039.85 836.687 1014.12 799.579 984.853C773.964 964.648 748.266 942.821 726.836 915.426C720.603 907.453 714.673 898.915 709.879 889.384C706.586 882.848 704.821 874.413 700.051 869.5C685.127 854.163 655.164 858.743 637.661 859.635C602.73 861.412 568.35 869.859 533.463 871.912C514.423 873.034 484.604 875.856 470.622 854.888C457.473 835.177 469.383 804.132 477.241 785.14C492.686 747.796 513.437 714.526 532.035 679.812C539.681 665.528 548.06 650.582 553.014 634.271C557.417 619.736 549.816 609.217 542.319 598.666Z" stroke="var(--stroke-0, #5ACEF2)" stroke-width="2"/>
<path id="Shape_5" fill-rule="evenodd" clip-rule="evenodd" d="M549.514 599.343C526.229 563.129 498.158 530.982 474.704 494.179C460.976 472.626 437.334 436.393 447.951 406.007C459.599 372.618 500.199 371.708 523.667 369.018C551.6 365.816 584.402 361.441 608.306 340.593C615.867 334.002 622.307 325.279 625.037 313.788C627.96 301.49 624.764 290.73 624.348 278.419C623.476 252.594 635.396 231.861 651.171 217.623C673.465 197.492 701.343 187.974 727.675 181.339C757.507 173.854 787.835 170.164 818.224 170.322C847.266 170.45 876.001 169.617 905.073 168.657C943.092 167.376 981.646 169.444 1018.53 182.504C1054.86 195.378 1087.89 219.506 1113.83 254.996C1139.14 289.628 1156.22 331.959 1171.18 375.078C1179.66 399.551 1194 436.124 1214.24 448.485C1223.25 453.987 1232.08 453.609 1222.51 467.918C1210.45 485.936 1194.21 500.392 1180.25 515.802C1160.11 538.04 1139.46 560.714 1122.56 587.154C1111.77 604.038 1106.95 620.422 1107.7 642.282C1108.27 658.935 1110.88 675.415 1109.56 692.132C1106.47 731.369 1082.58 758.277 1061.45 783.333C1047.86 799.448 1035.45 811.74 1028.46 834.663C1020.19 861.756 1016.71 891.232 1011.18 919.363C1005.11 950.255 998.094 982.388 984.837 1009.6C973.035 1033.82 958.683 1044.68 937.201 1038.16C903.695 1027.99 870.67 1002.93 840.925 979.75C810.649 956.166 780.894 929.65 755.805 897.234C742.26 879.729 733.015 859.175 720.986 840.37C705.856 816.761 671.627 825.703 651.285 827.701C617.516 831.019 511.262 855.845 521.066 775.436C525.159 741.874 541.275 710.899 553.061 681.282C557.946 668.991 565.016 654.24 566.121 640.156C567.324 624.816 556.514 610.244 549.514 599.343Z" stroke="var(--stroke-0, #FF8062)" stroke-width="2"/>
<path id="Shape_6" fill-rule="evenodd" clip-rule="evenodd" d="M561.808 602.411C544.014 569.594 522.719 538.59 507.45 503.146C497.546 480.191 487.819 449.52 500.596 425.233C515.018 397.824 546.817 391.435 570.183 387.942C594.256 384.347 622.995 381.323 642.671 360.54C648.931 353.92 654.091 344.994 655.052 334.304C655.978 324.051 653.363 313.798 654.23 303.358C656.171 279.917 667.161 260.602 681.329 246.593C723.242 205.15 785.622 195.935 836.191 194.852C861.503 194.314 887.553 197.14 913.028 199.165C946.085 201.792 979.192 207.432 1010.72 221.024C1077.75 249.913 1122.68 313.983 1154.06 393.71C1163.93 418.805 1171.49 445.957 1186.97 466.124C1194.94 476.538 1193.2 484.017 1185.04 493.514C1172.29 508.356 1156.74 519.698 1142.58 532.086C1122.45 549.702 1101.89 567.582 1084.08 588.684C1071.81 603.231 1063.1 617.246 1060.46 639.06C1058.57 654.614 1059.01 670.461 1057.88 686.111C1055.72 715.839 1048.32 745.343 1035.23 770.003C1024.83 789.548 1012.45 807.312 999.655 824.249C983.02 846.301 968.951 868.704 956.317 894.876C939.568 929.52 916.034 993.424 876.583 976.512C833.071 957.851 792.288 910.435 764.371 864.494C754.997 849.069 747.3 830.151 734.657 818.777C715.729 801.775 696.523 802.371 674.01 802.442C640.304 802.538 566.959 812.003 566.166 746.689C565.854 720.812 574.511 696.345 578.656 671.455C583.331 643.578 573.961 624.776 561.808 602.411Z" stroke="var(--stroke-0, #F1B170)" stroke-width="2"/>
<path id="Shape_7" fill-rule="evenodd" clip-rule="evenodd" d="M575.061 605.341C557.461 562.569 517.993 492.287 548.011 444.725C563.868 419.59 591.914 410.144 615.441 404.515C634.374 399.962 657.208 398.252 671.513 378.951C682.028 364.76 677.36 344.108 681.389 326.343C686.389 304.32 697.865 286.3 711.967 272.756C751.375 234.902 806.169 223.286 853.575 220.814C902.81 218.252 957.059 230.234 1003.39 253.281C1061.16 282.028 1104.43 336.461 1134.7 405.393C1140.28 418.117 1145.36 431.175 1150.72 444.053C1154.32 452.692 1159.66 461.049 1162.5 470.136C1167.23 485.287 1161.66 497.673 1152.73 507.547C1139.89 521.764 1124.11 531.882 1109.47 542.551C1089.45 557.152 1068.98 571.49 1050.35 588.62C1037.83 600.147 1024.73 612.565 1020.25 632.564C1017.19 646.204 1016.56 660.651 1016.67 674.778C1016.91 705.069 1015.68 729.563 1004.75 757.305C986.76 802.849 959.1 843.802 929.88 877.877C906.947 904.62 870.661 946.162 837.248 928.282C807.269 912.272 789.733 873.952 769.982 842.97C760.379 827.908 749.592 814.152 736.916 803.438C720.936 789.933 705.892 784.265 686.958 782.056C655.092 778.335 607.042 777.368 597.191 727.93C593.554 709.686 595.63 690.788 593.722 672.306C591.23 647.869 583.941 626.916 575.061 605.341Z" stroke="var(--stroke-0, #5BE7C3)" stroke-width="2"/>
<path id="Shape_8" fill-rule="evenodd" clip-rule="evenodd" d="M593.363 606.925C580.83 560.125 564.364 501.144 594.636 459.549C609.298 439.399 629.923 428.135 649.884 419.718C664.18 413.685 686.88 411.909 695.645 393.362C702.082 379.713 702.974 360.884 708.797 346.26C716.799 326.155 728.922 309.596 743.144 296.633C780.194 262.853 828.45 249.8 872.458 246.063C968.079 237.953 1065.37 302.544 1116.54 408.813C1131.8 440.489 1151.49 474.205 1126.84 506.568C1099.92 541.873 1059.37 558.413 1027.24 583.5C1014.96 593.078 999.321 604.592 992.473 621.934C988.353 632.358 988.07 645.436 987.882 656.912C987.387 686.14 985.51 712.425 976.423 739.697C962.39 781.843 940.012 820.726 914.653 852.576C892.538 880.348 860.999 912.987 828.881 892.965C804.255 877.579 788.637 844.921 769.503 820.848C748.209 794.037 721.875 775.971 692.956 767.143C664.824 758.578 633.969 752.801 619.143 716.413C614.057 703.93 608.744 687.768 606.837 673.952C603.759 651.173 599.253 628.757 593.363 606.925V606.925Z" stroke="var(--stroke-0, #FF8062)" stroke-width="2"/>
<path id="Shape_9" fill-rule="evenodd" clip-rule="evenodd" d="M613.77 607.251C607.971 559.993 607.327 510.715 634.267 473.469C646.84 456.092 662.733 443.747 678.804 432.562C690.629 424.332 702.84 417.39 711.671 403.898C719.853 391.406 726.072 376.901 733.972 364.081C744.392 347.093 756.86 332.387 770.897 320.528C806.083 290.857 848.886 276.981 889.836 272.167C909.659 269.827 931.162 268.61 950.852 274.987C969.867 281.14 988.669 290.87 1006.15 302.215C1043.32 326.309 1075.53 361.594 1098.89 406.206C1114.9 436.805 1123.56 466.559 1102.82 497.601C1079.44 532.591 1042.79 551.897 1012.58 574.607C991.861 590.182 968.638 605.45 964.767 638.549C961.685 664.887 959.182 689.884 951.208 714.779C939.341 751.5 921.892 784.764 899.896 812.597C879.781 837.954 854.333 859.471 825.56 845.927C802.763 835.178 785.076 811.097 765.159 793.881C742.962 774.652 718.574 764.05 692.893 755.525C669.814 747.834 648.083 736.014 633.167 710.921C630.114 705.793 626.907 700.21 624.553 694.473C621.55 687.154 621.783 679.898 621.193 671.694C619.657 650.042 616.391 628.64 613.77 607.251Z" stroke="var(--stroke-0, #F1B170)" stroke-width="2"/>
<path id="Shape_10" fill-rule="evenodd" clip-rule="evenodd" d="M636.27 603.391C636.765 558.503 645.112 516.08 667.972 481.097C677.745 466.132 689.416 453.806 700.17 440.093C708.828 429.038 717.011 418.766 726.968 409.656C750.586 388.085 769.781 360.171 794.88 340.962C828.385 315.282 866.765 301.088 904.847 295.413C923.442 292.639 942.652 291.67 961.465 294.803C977.623 297.493 993.098 306.936 1007.45 316.598C1035.59 335.524 1062.91 362.424 1081.18 396.456C1121.45 471.487 1042.04 526.037 1001.29 557.983C982.542 572.678 953.901 589.697 946.223 618.806C940.735 639.6 937.391 660.747 930.323 680.899C911.336 735.02 872.793 798.674 821.431 790.199C799.452 786.579 779.42 771.87 758.903 761.997C737.776 751.827 715.971 746.158 694.013 739.938C673.49 734.127 657.134 725.859 643.878 703.69C637.543 693.104 638.103 680.431 637.538 667.443C636.617 646.11 636.047 624.654 636.27 603.391Z" stroke="var(--stroke-0, #5BE7C3)" stroke-width="2"/>
<path id="Shape_11" fill-rule="evenodd" clip-rule="evenodd" d="M656.759 597.638C665.01 529.883 695.657 455.914 740.719 416.566C793.725 370.279 851.15 331.302 914.481 320.097C943.843 314.901 976.007 312.345 1003.71 329.335C1024.8 342.257 1049.29 361.572 1060.89 388.736C1089.28 455.177 1026.14 508.069 990.16 538.808C970.79 555.356 946.134 571.481 931.535 595.646C923.065 609.657 918.741 628.191 911.903 643.579C891.179 690.212 857.066 727.825 814.573 734.551C794.925 737.659 775.134 733.815 755.636 730.759C735.676 727.632 715.468 725.935 695.632 721.572C679.798 718.087 661.137 712.186 655.306 690.27C647.952 662.651 653.392 625.308 656.759 597.638Z" stroke="var(--stroke-0, #5ACEF2)" stroke-width="2"/>
<path id="Shape_12" fill-rule="evenodd" clip-rule="evenodd" d="M676.85 586.756C688.884 523.055 714.368 460.918 757.209 422.889C779.928 402.724 806.3 388.804 831.621 375.051C860.322 359.464 890.309 347.365 920.936 341.363C959.07 333.887 1020.83 327.148 1040.76 383.348C1060.53 439.13 1010.56 488.501 981.01 516.636C962.064 534.66 941.788 551.202 923.687 570.906C913.871 581.588 906.31 593.931 898.004 606.459C875.047 641.173 842.32 668.654 808.962 683.324C776.631 697.545 736.635 703.842 702.508 699.142C687.782 697.122 677.257 690.307 672.804 670.93C666.632 643.994 671.875 613.07 676.85 586.756Z" stroke="var(--stroke-0, #F1B170)" stroke-width="2"/>
<path id="Shape_13" fill-rule="evenodd" clip-rule="evenodd" d="M696.814 569.599C708.769 513.512 734.556 462.285 772.169 428.623C814.332 390.887 868.624 369.919 918.524 359.255C945.049 353.592 1002.53 338.236 1016.05 382.184C1029.57 426.133 990.484 469.443 967.989 493.284C940.688 522.177 911.252 550.073 881.852 575.996C856.307 598.536 829.05 621.579 801.382 638.985C785.777 648.859 769.522 656.921 752.808 663.076C740.432 667.597 724.695 674.339 711.719 670.974C678.992 662.476 691.096 596.416 696.814 569.599Z" stroke="var(--stroke-0, #FF8062)" stroke-width="2"/>
<path id="Shape_14" fill-rule="evenodd" clip-rule="evenodd" d="M721.457 552.803C747.688 446.737 830.797 394.571 910.817 376.389C929.412 372.168 981.538 356.951 991.932 389.352C1002 420.766 969.971 458.022 954.975 475.673C908.506 530.368 851.094 570.922 796.691 611.098C779.71 623.638 749.084 650.851 728.019 638.298C705.149 624.643 716.022 574.797 721.457 552.803Z" stroke="var(--stroke-0, #5ACEF2)" stroke-width="2"/>
<path id="Shape_15" fill-rule="evenodd" clip-rule="evenodd" d="M748.326 532.387C771.138 454.277 837.489 409.478 898.492 394.71C913.434 391.096 951.381 379.845 962.698 401.642C973.17 421.806 948.178 451.022 938.828 462.632C918.012 488.485 893.343 509.782 868.971 530.253C846.437 549.193 823.66 568.607 799.949 584.624C787.46 593.056 764.037 611.048 749.845 598.028C734.566 584.022 743.261 549.731 748.326 532.387Z" stroke="var(--stroke-0, #5ACEF2)" stroke-width="2"/>
<path id="Shape_16" fill-rule="evenodd" clip-rule="evenodd" d="M777.935 509.567C795.322 458.558 841.889 425.434 882.967 414.427C894.02 411.472 917.909 403.805 927.234 417.427C935.818 429.973 921.983 448.365 915.843 456.859C888.63 494.508 848.779 528.138 812.266 548.793C803.086 553.986 786.583 564.178 777.14 553.697C767.453 542.934 773.941 521.279 777.935 509.567Z" stroke="var(--stroke-0, #5BE7C3)" stroke-width="2"/>
<path id="Shape_17" fill-rule="evenodd" clip-rule="evenodd" d="M809.345 488.141C819.142 462.812 844.749 443.702 865.96 437.618C880.888 433.341 898.832 437.036 885.822 459.084C872.898 480.964 848.918 500.948 828.593 509.807C813.086 516.563 800.932 509.898 809.345 488.141Z" stroke="var(--stroke-0, #F1B170)" stroke-width="2"/>
<path id="Shape_18" fill-rule="evenodd" clip-rule="evenodd" d="M14.8455 663.571C14.2172 613.53 -6.34109 561.523 3.81185 510.535C12.1489 468.658 54.1214 465.161 79.3009 446.189C99.3099 431.116 110.665 404.414 121.486 378.795C131.209 355.795 139.941 332.103 150.183 309.48C156.814 294.855 168.198 266.137 182.577 265.618C196.342 265.119 208.964 287.498 216.959 300.727C227.384 317.971 236.627 336.354 246.75 353.874C263.81 383.424 284.279 405.298 307.717 425.999C334.389 449.555 361.502 472.305 389.055 494.251C409.341 510.458 429.765 526.543 449.265 544.35C461.496 555.524 488.491 576.488 488.615 597.087C488.674 606.916 481.475 617.801 476.621 625.658C468.408 638.957 459.047 651.117 449.656 663.014C432.165 685.176 413.932 706.332 395.898 727.744C372.489 755.534 350.13 782.87 329.552 814.418C308.276 847.075 287.951 880.807 267.209 914.078C253.163 936.617 239.131 961.929 218.869 975.76C193.492 993.049 172.661 974.819 146.997 974.608C124.92 974.422 126.548 908.238 123.742 889.835C120.927 871.209 114.722 853.869 112.318 835.197C109.319 811.889 109.28 788.044 108.543 764.486C107.647 735.672 107.291 708.24 83.4867 697.252C69.9396 691.009 55.2841 689.697 41.262 685.957C32.1778 683.53 15.0435 679.381 14.8455 663.571Z" stroke="var(--stroke-0, #FF8062)" stroke-width="2"/>
<path id="Shape_19" fill-rule="evenodd" clip-rule="evenodd" d="M25.6993 654.673C23.3851 612.726 9.7134 559.037 22.6418 515.737C33.6873 478.735 68.2308 473.938 91.4911 454.501C110.693 438.468 119.241 412.233 128.839 386.46C136.54 365.785 144.008 344.911 152.749 324.896C159.191 310.146 169.027 285.245 182.421 282.192C194.463 279.448 207.376 301.431 214.135 312.615C223.997 328.942 232.431 346.674 241.142 364.034C256.449 394.527 272.123 421.949 294.526 444.349C317.028 466.845 341.646 483.666 366.527 501.174C385.991 514.872 405.357 528.967 423.85 544.781C437.626 556.556 457.432 571.626 463.735 592.622C468.725 609.231 443.418 636.794 435.956 646.522C420.594 666.524 404.316 685.301 388.008 703.962C368.127 726.703 347.612 746.589 330.055 772.529C298.653 818.907 272.405 876.662 231.999 911.131C207.629 931.922 180.509 937.238 153.403 934.128C142.67 932.897 140.093 913.292 138.74 901.858C136.49 882.863 136.208 863.541 134.479 844.469C132.858 826.616 129.261 809.653 126.362 792.146C123.428 774.408 122.606 756.234 120.445 738.374C119.107 727.286 117.784 714.383 111.932 705.469C105.876 696.241 95.8865 692.374 87.1552 689.437C70.758 683.973 27.3345 684.275 25.6993 654.673Z" stroke="var(--stroke-0, #5BE7C3)" stroke-width="2"/>
<path id="Shape_20" fill-rule="evenodd" clip-rule="evenodd" d="M39.6684 637.112C35.7765 598.608 30.3279 550.651 46.1829 515.176C59.1426 486.17 86.7823 479.913 106.524 461.013C122.944 445.297 129.147 420.3 137.297 397.071C143.985 378.017 150.708 358.881 158.814 340.749C164.962 326.999 172.884 308.355 185.09 303.558C195.527 299.46 207.316 317.821 213.102 326.961C222.953 342.536 230.985 359.989 238.962 377.21C252.011 405.39 264.019 435.491 282.591 458.413C300.637 480.656 322.074 493.785 343.914 508.548C360.641 519.858 377.265 531.604 393.025 545.092C405.127 555.441 420.125 567.706 426.431 584.928C431.885 599.78 417.884 617.36 410.888 627.838C399.337 645.13 386.516 660.994 373.874 676.922C360.23 694.106 345.118 709.957 331.916 727.563C304.152 764.613 281.971 805.634 247.752 834.019C225.591 852.406 195.77 869.109 169.573 866.105C150.733 863.94 151.972 810.002 150.163 792.767C147.188 764.587 141.442 734.979 132.315 709.022C124.476 686.779 105.85 679.92 88.7159 674.93C77.9822 671.799 66.733 670.108 56.3514 665.266C44.3337 659.656 41.2995 653.251 39.6684 637.112Z" stroke="var(--stroke-0, #5ACEF2)" stroke-width="2"/>
<path id="Shape_21" fill-rule="evenodd" clip-rule="evenodd" d="M52.6983 619.065C50.3811 586.512 50.9021 548.018 65.9122 519.858C79.0664 495.193 102.487 488.699 119.145 469.268C132.145 454.109 137.251 429.393 144.242 409.346C152.787 384.834 164.76 339.563 186.315 330.339C206.367 321.764 227.336 376.542 234.595 392.876C246.087 418.73 255.699 447.082 269.637 470.958C281.64 491.512 297.722 502.875 314.791 515.085C336.555 530.681 369.597 549.174 381.233 579.569C389.906 602.217 361.702 635.888 352.071 651.58C341.998 667.972 334.411 687.402 324.016 703.217C307.611 728.171 281.03 748.263 259.083 763.595C237.746 778.51 210.038 795.018 185.834 794.035C169.926 793.393 166.899 761.611 163.505 746.085C158.642 724.015 152.177 704.238 138.288 689.227C124.151 673.946 107.489 666.745 89.9729 660.444C80.9817 657.232 70.7253 654.727 62.6819 648.24C53.7949 641.181 53.5915 631.578 52.6983 619.065Z" stroke="var(--stroke-0, #F1B170)" stroke-width="2"/>
<path id="Shape_22" fill-rule="evenodd" clip-rule="evenodd" d="M68.5746 600.3C68.7032 572.176 73.6739 542.186 88.4127 520.493C100.688 502.423 119.903 496.383 131.655 477.911C140.963 463.287 145.701 442.757 151.933 425.774C159.555 404.962 170.332 368.606 189.285 361.384C207.782 354.353 224.143 394.397 231.236 410.242C241.622 433.476 250.03 458.103 260.511 481.273C268.721 499.451 278.761 511.167 292.13 522.883C307.823 536.645 329.719 551.889 338.102 574.656C344.146 591.14 329.516 617.481 324.204 632.003C320.643 641.756 317.384 651.664 315.593 662.236C314.199 670.468 314.06 678.087 310.019 685.156C299.846 702.938 277.54 705.258 262.405 711.119C242.305 718.898 220.978 727.738 199.943 729.425C187.014 730.48 180.417 715.069 173.037 704.229C164.318 691.414 151.973 682.197 141.191 672.526C126.961 659.743 111.475 651.791 95.4557 643.648C88.2297 639.973 79.7425 636.368 74.1437 629.062C68.2977 621.488 68.5301 610.45 68.5746 600.3Z" stroke="var(--stroke-0, #FF8062)" stroke-width="2"/>
<path id="Shape_23" fill-rule="evenodd" clip-rule="evenodd" d="M85.2493 583.602C87.804 559.982 95.7651 537.407 109.212 520.71C119.52 507.89 133.209 500.673 141.482 485.27C149.191 470.912 154.563 454.587 160.93 439.236C167.668 423.006 177.679 395.88 193.22 391.464C209.969 386.708 222.871 414.071 230.015 429.236C239.041 448.401 245.898 469.022 253.968 488.847C260.048 503.624 267.803 517.138 276.975 528.94C286.595 541.381 299.641 553.297 304.507 570.405C308.81 585.557 300.76 603.889 299.339 619.253C297.819 635.669 300.482 652.911 292.056 667.006C274.678 696.074 231.065 690.683 206.132 691.305C181.531 691.946 161.752 674.159 141.844 657.237C128.694 646.065 115 636.604 101.518 626.195C87.7742 615.574 83.0015 604.389 85.2493 583.602Z" stroke="var(--stroke-0, #5ACEF2)" stroke-width="2"/>
<path id="Shape_24" fill-rule="evenodd" clip-rule="evenodd" d="M100.741 570.086C108.296 535.867 131.892 517.68 148.76 491.82C162.562 470.65 172.911 426.809 196.155 421.009C222.544 414.428 238.343 472.517 247.517 494.932C257.698 519.79 275.829 540.011 283.369 566.326C287.332 580.138 283.929 593.026 281.818 606.832C279.505 621.991 277.766 637.49 269.78 649.692C254.061 673.704 223.362 673.537 201.252 674.198C178.365 674.884 158.118 658.429 139.883 642.006C120.542 624.615 93.0033 605.177 100.741 570.086Z" stroke="var(--stroke-0, #5ACEF2)" stroke-width="2"/>
<path id="Shape_25" fill-rule="evenodd" clip-rule="evenodd" d="M113.395 560.806C121.908 536.426 139.797 516.606 154.312 497.896C166.428 482.298 179.462 450.897 197.934 448.658C219.646 446.018 232.804 479.549 241.347 500.109C249.755 520.311 261.87 541.643 266.526 563.816C271.381 586.914 258.452 618.021 246.122 634.366C232.37 652.592 209.87 659.326 190.564 658.599C170.35 657.859 151.802 642.796 136.493 627.172C120.126 610.471 103.495 589.108 113.395 560.806Z" stroke="var(--stroke-0, #FF8062)" stroke-width="2"/>
<path id="Shape_26" fill-rule="evenodd" clip-rule="evenodd" d="M125.136 556.214C133.268 535.937 147.363 518.783 160.359 503.483C170.389 491.67 185.189 471.585 199.658 471.093C215.577 470.55 229.068 487.409 235.396 504.69C241.635 521.735 248.208 543.105 249.142 561.804C251.17 602.525 209.883 648.139 178.88 644.427C149.486 640.907 108.923 596.615 125.136 556.214Z" stroke="var(--stroke-0, #5ACEF2)" stroke-width="2"/>
<path id="Shape_27" fill-rule="evenodd" clip-rule="evenodd" d="M135.994 553.98C147.212 527.561 174.461 489.896 199.687 489.001C228.643 487.979 235.912 529.893 232.138 560.267C228.304 591.268 194.92 636.141 168.3 630.077C142.32 624.161 122.7 585.314 135.994 553.98Z" stroke="var(--stroke-0, #5BE7C3)" stroke-width="2"/>
<path id="Shape_28" fill-rule="evenodd" clip-rule="evenodd" d="M147.459 549.712C156.957 527.591 177.225 499.96 198.363 499.124C223.551 498.135 223.076 533.522 217.364 555.547C211.425 578.414 185.267 617.472 163.213 611.305C141.768 605.285 138.357 570.913 147.459 549.712Z" stroke="var(--stroke-0, #FF8062)" stroke-width="2"/>
<path id="Shape_29" fill-rule="evenodd" clip-rule="evenodd" d="M157.445 547.162C163.714 531.378 179.405 511.429 194.321 510.79C212.553 510.023 209.009 538.09 204.298 551.637C198.699 567.756 179.931 595.766 164.181 591.226C148.674 586.758 152.273 560.167 157.445 547.162Z" stroke="var(--stroke-0, #5ACEF2)" stroke-width="2"/>
<path id="Shape_30" fill-rule="evenodd" clip-rule="evenodd" d="M1015.1 1449.02C974.747 1480.69 929.127 1506.83 886.108 1533.4C823.241 1572.22 759.447 1610 693.39 1638.92C657.974 1654.42 612.082 1676.77 574.081 1664.63C560.187 1660.19 547.516 1646.76 535.059 1638.04C517.881 1626.01 500.45 1614.58 483.049 1603.12C448.143 1580.15 413.129 1557.41 378.822 1532.97C362.303 1521.19 346.274 1506.36 329.076 1496.32C319.026 1490.45 307 1493.19 296.261 1493.57C271.386 1494.43 246.525 1496.07 221.665 1497.47C191.256 1499.17 160.779 1500.98 130.336 1500.31C116.605 1500 82.9776 1503.15 75.4189 1487.86C71.3523 1479.62 80.9368 1464.77 85.3799 1457.89C93.538 1445.26 102.915 1433.88 112.167 1422.61C133.565 1396.56 156.291 1371.74 175.312 1342.63C185.085 1327.67 197.889 1309.39 191.509 1288.96C185.07 1268.33 173.915 1250.47 167.109 1229.91C159.273 1206.24 156.024 1181.62 152.324 1156.53C149.584 1137.99 143.205 1121.56 137.206 1104.46C130.579 1085.57 123.713 1066.51 119.112 1046.58C116.07 1033.42 111.162 1009.74 121.801 1001.41C136.919 989.555 165.266 999.15 182.499 1002.64C206.314 1007.46 229.956 1013.59 253.707 1018.88C270.95 1022.72 288.252 1026.94 305.781 1027.39C334.04 1028.11 362.392 1025.6 390.576 1023.27C442.764 1018.96 494.578 1013.1 546.942 1013.1C592.818 1013.1 698.834 1081.75 723.65 1093.84C773.183 1117.96 824.033 1140.84 870.906 1172.94C883.586 1181.63 903.102 1193.22 909.774 1211.11C913.891 1222.13 911.998 1228.5 921.707 1235.61C934.952 1245.3 951.922 1249.1 966.584 1253.44C990.196 1260.42 1013.99 1266.33 1037.71 1272.66C1085.69 1285.41 1133.34 1299.83 1181.12 1313.71C1195.56 1317.91 1213.04 1318.84 1226.81 1326.23C1235.69 1330.98 1234.76 1336.95 1227.89 1344.17C1215.84 1356.82 1198.95 1363.85 1184.72 1371.07C1163.86 1381.64 1142.66 1391.08 1121.45 1400.38C1100.24 1409.68 1078.92 1418.69 1057.7 1428.01C1043.68 1434.15 1027.7 1439.14 1015.1 1449.02Z" stroke="var(--stroke-0, #FF8062)" stroke-width="2"/>
<path id="Shape_31" fill-rule="evenodd" clip-rule="evenodd" d="M981.893 1442.05C939.207 1473.78 891.823 1499.06 846.144 1523.73C787.683 1555.31 727.899 1584.92 666.301 1604.66C630.135 1616.25 587.463 1629.04 550.508 1615.75C537.325 1611.01 527.475 1600.36 516.175 1590.95C503.293 1580.22 489.917 1570.39 476.54 1560.71C449.004 1540.78 421.177 1521.54 393.059 1502.98C378.166 1493.1 361.772 1479.88 344.947 1476.46C331.571 1473.73 316.376 1477.68 302.939 1478.83C278.742 1480.89 254.55 1483.02 230.343 1484.83C202.411 1486.91 174.399 1488.84 146.407 1488.51C130.806 1488.32 104.022 1491.39 92.9891 1478.35C83.3628 1466.97 118.41 1425.82 124.573 1418C143.821 1393.58 164.064 1370.34 181.979 1344.23C192.567 1328.83 205.458 1310.11 209.922 1289.7C213.722 1272.31 206.389 1252.5 202.059 1236.43C196.644 1216.29 192.274 1195.42 185.982 1175.7C180.379 1158.14 171.461 1142.5 163.628 1126.53C155.013 1108.97 146.288 1091.12 139.892 1071.96C135.973 1060.17 129.488 1040.42 137.276 1029.18C146.273 1016.23 174.008 1024.69 185.408 1026.54C208.534 1030.34 231.483 1035.98 254.451 1041.04C292.6 1049.43 328.97 1056.77 367.817 1055.01C418.406 1052.71 468.945 1047.31 519.524 1044.32C538.202 1043.21 557.177 1040.96 575.87 1042.17C586.586 1042.87 594.746 1047.11 600.978 1056.66C609.49 1069.69 629.094 1076.91 642.728 1084.39C663.988 1096.04 685.514 1106.88 706.981 1117.86C754.107 1141.98 802.14 1165.23 846.833 1196.42C860.972 1206.29 877.163 1217.29 887.622 1233.59C893.458 1242.68 891.987 1251.44 895.549 1261.1C900.265 1273.8 915.772 1279.54 925.042 1283.69C942.932 1291.73 961.556 1297.11 980.035 1302.15C1021.85 1313.55 1063.76 1321.05 1106.26 1326.58C1116.22 1327.86 1155.43 1332.3 1134.83 1353.73C1112.08 1377.4 1079.22 1389.01 1052.43 1402.35C1028.3 1414.35 1004.15 1425.51 981.893 1442.05Z" stroke="var(--stroke-0, #5BE7C3)" stroke-width="2"/>
<path id="Shape_32" fill-rule="evenodd" clip-rule="evenodd" d="M922.901 1436.19C882.777 1464.11 838.328 1484.93 795.115 1504.86C742.676 1529.04 688.923 1550.59 633.925 1562.66C599.376 1570.24 561.286 1576.06 526.969 1563.47C503.535 1554.87 485.407 1531.64 464.825 1515.65C444.242 1499.67 422.826 1484.66 400.77 1472.15C387.082 1464.39 372.356 1456.57 357.125 1457.59C320.091 1460.08 283.102 1466 246.028 1468.88C221.503 1470.8 196.928 1472.38 172.328 1471.91C157.493 1471.63 137.114 1472.78 123.981 1462.69C109.464 1451.52 186.76 1356.21 194.066 1345.48C212.382 1318.58 234.562 1282.88 231.02 1244.63C227.633 1208.06 212.952 1180.76 196.347 1152.1C186.924 1135.8 156.705 1092.26 167.903 1071.06C174.301 1058.94 195.39 1063.14 205.409 1063.97C225.153 1065.59 244.788 1069.09 264.429 1072.12C293.066 1076.52 322.492 1083.32 351.253 1085.31C371.28 1086.7 391.426 1084.84 411.488 1084.81C440.254 1084.75 469.021 1085.04 497.787 1085.37C521.94 1085.65 546.297 1085.37 570.367 1088.37C585.33 1090.21 596.688 1094.35 607.42 1106.06C616.76 1116.25 630.85 1122.21 642.753 1128.68C662.413 1139.37 682.331 1149.28 702.185 1159.35C743.752 1180.43 785.795 1201.07 825.582 1227.42C843.744 1239.44 874.281 1256.27 878.541 1285.42C880.079 1295.93 881.21 1300.47 889.145 1306.45C900.409 1314.93 913.899 1318.75 926.536 1322.07C955.997 1329.82 986.31 1328.66 1015.72 1336.32C1027.7 1339.48 1043.34 1346.3 1029.66 1361.9C1013.71 1380.14 990.481 1390.17 971.367 1401.45C961.824 1407.07 951.994 1412.33 942.933 1419.2C935.974 1424.49 930.018 1431.27 922.901 1436.19Z" stroke="var(--stroke-0, #5ACEF2)" stroke-width="2"/>
<path id="Shape_33" fill-rule="evenodd" clip-rule="evenodd" d="M846.905 1427.48C809.836 1450.15 769.577 1466.64 730.042 1481.5C686.129 1497.99 641.156 1511.64 595.589 1517.45C564.125 1521.48 530.601 1522.66 500.063 1510.34C480.751 1502.55 467.658 1486.16 451.04 1472.42C425.959 1451.64 398.823 1435.18 368.691 1439.19C334.909 1443.67 301.017 1447.03 267.014 1449.27C246.504 1450.63 225.914 1451.64 205.379 1450.7C192.395 1450.11 175.668 1449.11 164.372 1441.5C149.259 1431.32 206.027 1353.79 213.104 1342.49C230.653 1314.47 243.518 1285.07 251.035 1250.35C257.165 1222.02 244.642 1199.75 231.722 1178.55C223.691 1165.39 197.738 1132.29 205.864 1115.2C210.321 1105.78 225.008 1106.27 232.896 1105.79C247.93 1104.87 263.028 1105.82 278.062 1106.24C300.261 1106.88 323.891 1102.47 345.902 1106.02C394.683 1113.88 443.34 1120.69 492.422 1126.07C519.479 1129.04 546.7 1131.74 573.514 1137.46C583.14 1139.51 593.083 1141.69 602.205 1146.33C608.073 1149.32 611.272 1154.4 616.223 1158.58C639.834 1178.44 670.654 1188.66 697.246 1201.39C732.597 1218.31 768.136 1234.97 802.547 1254.96C820.646 1265.48 845.925 1277.56 858.379 1299.02C862.142 1305.51 860.538 1310.69 862.905 1316.93C865.628 1324.12 873.903 1326.26 879.246 1328.27C891.373 1332.82 942.134 1339.7 918.742 1366.4C907.58 1379.12 893.359 1387.28 880.776 1397.27C876.22 1400.89 871.778 1404.53 867.98 1409.42C861.627 1417.61 855.368 1422.28 846.905 1427.48Z" stroke="var(--stroke-0, #F1B170)" stroke-width="2"/>
<path id="Shape_34" fill-rule="evenodd" clip-rule="evenodd" d="M765.932 1417.65C692.752 1454.34 606.988 1479.33 527.203 1474.49C500.671 1472.87 472.125 1467.48 449.126 1449.02C435.565 1438.12 424.727 1425.81 408.437 1421.87C396.677 1419.03 384.014 1422.26 372.184 1423.42C355.051 1425.12 337.907 1426.63 320.748 1427.86C299.476 1429.35 278.134 1430.5 256.822 1429.89C241.594 1429.45 220.564 1429.95 207.336 1419.36C191.541 1406.74 231.744 1347.53 237.401 1336.98C251.111 1311.41 260.722 1286.64 264.196 1255.82C265.218 1246.84 268.661 1237.64 268.215 1228.59C267.748 1219.35 263.347 1211.12 259.283 1203.85C253.969 1194.33 235.53 1171.74 240.81 1160.13C243.727 1153.71 254.678 1152.91 260.355 1151.55C271.004 1148.98 281.806 1147.6 292.519 1145.56C310.695 1142.09 328.742 1130.77 346.982 1131.09C396.032 1131.93 445.791 1151.61 493.859 1162.42C522.435 1168.86 551.205 1174.71 579.434 1183.44C588.366 1186.2 597.565 1189.06 606.055 1193.75C611.98 1197.02 615.786 1202.85 621.274 1206.52C642.318 1220.58 666.518 1229.12 689.115 1238.58C718.45 1250.9 747.885 1262.84 777.017 1275.95C795.278 1284.16 818.758 1291.39 834.493 1306.63C845.985 1317.76 838.13 1321.08 832.066 1331.45C828.97 1336.73 829.684 1341.94 828.34 1347.93C826.419 1356.47 820.991 1362.62 815.9 1368.15C808.879 1375.78 799.525 1382.08 793.784 1391.44C791.76 1394.74 791.854 1398.83 790.216 1401.7C785.453 1410.07 772.814 1414.2 765.932 1417.65Z" stroke="var(--stroke-0, #FF8062)" stroke-width="2"/>
<path id="Shape_35" fill-rule="evenodd" clip-rule="evenodd" d="M688.127 1404.59C628.733 1427.65 562.647 1440.78 499.865 1434.69C478.022 1432.56 456.044 1427.63 435.696 1416.79C426.439 1411.88 419.49 1406.4 409.345 1406.11C385.808 1405.43 362.196 1407.81 338.663 1408.38C321.822 1408.79 304.897 1408.93 288.096 1407.18C276.862 1406.02 261.671 1404.62 252.467 1395.71C239.094 1382.73 263.236 1338.61 268.149 1326.42C276.292 1306.2 284.371 1283.73 281.142 1260.34C280.151 1253.18 278.398 1246.86 278.17 1239.57C277.952 1233.3 278.561 1227.52 276.842 1221.52C274.717 1214.09 265.267 1202.56 268.516 1195.73C270.73 1191.06 277.298 1190.84 281.667 1189.34C288.752 1186.92 295.671 1183.74 302.351 1179.83C309.385 1175.7 315.373 1169.32 322.659 1165.91C334.488 1160.38 347.728 1159.86 360.16 1159.88C409.766 1159.98 460.002 1172.64 508.35 1185.88C533.527 1192.77 558.843 1200.11 583.312 1210.57C590.742 1213.74 599.162 1216.93 605.695 1222.79C609.772 1226.44 612.536 1231.02 617.167 1233.76C656.728 1257.21 702.466 1265.91 744.464 1282.84C755.396 1287.25 815.979 1309.52 784.303 1330.47C765.06 1343.19 744.727 1348.98 727.168 1366.39C721.818 1371.69 718.252 1376.07 716.162 1384.15C714.785 1389.52 718.098 1386.79 713.472 1392.41C707.86 1399.17 695.046 1401.9 688.127 1404.59Z" stroke="var(--stroke-0, #F1B170)" stroke-width="2"/>
<path id="Shape_36" fill-rule="evenodd" clip-rule="evenodd" d="M626.37 1390.94C556.834 1409.77 483.194 1410.66 412.56 1393.97C394.753 1389.77 376.222 1390.78 358.197 1389.71C340.684 1388.68 309.546 1390.81 296.826 1373.4C287.602 1360.77 297.611 1333.93 301.073 1319.81C305.483 1301.82 309.337 1283.23 302.096 1265.75C297.854 1255.52 292.043 1245.77 287.493 1235.64C285.317 1230.79 280.837 1223.37 282.705 1218.79C285.794 1211.22 300.248 1208.03 307.261 1204.46C329.677 1193.06 353.414 1190.15 377.379 1190.23C421.644 1190.38 466.138 1198.21 509.559 1208.83C529.535 1213.71 549.791 1218.93 569.057 1227.42C579.96 1232.23 588.001 1241.49 598.412 1246.99C631.933 1264.7 667.948 1274.16 702.046 1290.35C711.915 1295.04 748.78 1310.64 730.209 1329.05C712.228 1346.86 686.003 1344.74 667.308 1361.5C665.192 1363.42 662.574 1365.72 661.347 1368.82C660.622 1370.68 661.899 1374.21 661.347 1375.26C655.606 1386.73 635.197 1388.56 626.37 1390.94Z" stroke="var(--stroke-0, #5ACEF2)" stroke-width="2"/>
<path id="Shape_37" fill-rule="evenodd" clip-rule="evenodd" d="M581.319 1378.5C545.644 1384.83 509.186 1386.4 472.911 1386.8C453.082 1387.02 431.297 1388.65 411.896 1382.15C399.978 1378.15 388.467 1374.66 376.182 1372.13C362.963 1369.42 341.68 1367.45 333.63 1352.74C327.617 1341.75 331.738 1319.15 331.957 1305.79C332.19 1291.13 329.866 1280.26 321.866 1269.77C316.836 1263.16 293.76 1239.19 296.427 1232.27C298.964 1225.69 315.043 1224.68 321.995 1222.97C343.969 1217.54 366.236 1215.65 388.587 1215.94C423.203 1216.39 457.949 1220.96 492.024 1228.81C506.112 1232.07 520.671 1235.44 534.129 1241.96C543.191 1246.35 550.749 1254.14 559.752 1258.68C585.535 1271.71 612.797 1280.55 638.668 1293.81C646.971 1298.07 674.025 1309.43 667.54 1326.92C662.132 1341.53 643.739 1345.97 634.701 1355.76C619.327 1372.46 600.924 1375.03 581.319 1378.5Z" stroke="var(--stroke-0, #5ACEF2)" stroke-width="2"/>
<path id="Shape_38" fill-rule="evenodd" clip-rule="evenodd" d="M558.845 1370.11C530.546 1374.3 501.589 1376.13 472.874 1376.22C454.343 1376.28 434.793 1376.6 416.608 1371.22C407.473 1368.51 399.535 1362.19 390.89 1357.68C381.988 1353.04 369.703 1347.86 365.855 1337.23C362.24 1327.24 363.59 1312.66 360.415 1300.6C357.591 1289.91 351.681 1283.31 345.316 1276.08C341.261 1271.46 320.435 1251.47 322.843 1247.05C325.425 1242.33 337.932 1242.71 344.441 1242.06C362.373 1240.23 380.368 1239.64 398.348 1240.31C422.889 1241.28 447.617 1244 471.732 1250.15C488.839 1254.5 501.742 1264.88 517.692 1272.49C538.355 1282.38 559.76 1290.19 580.225 1301.01C590.423 1306.4 605.517 1313.33 610.739 1327.24C612.747 1332.57 614.696 1346.12 612.461 1351.45C609.775 1357.86 599.78 1360.57 595.062 1362.22C583.242 1366.33 570.873 1368.33 558.845 1370.11Z" stroke="var(--stroke-0, #FF8062)" stroke-width="2"/>
<path id="Shape_39" fill-rule="evenodd" clip-rule="evenodd" d="M532.334 1359.88C496.958 1365.03 456.989 1369.4 421.505 1359.04C407.165 1354.86 392.885 1342.47 387.037 1325.57C384.008 1316.84 383.356 1306.44 378.831 1297.98C375.481 1291.72 371.218 1286.07 367.013 1280.8C364.645 1277.83 349.471 1261.54 352.397 1258.63C355.486 1255.56 363.066 1256.56 368.242 1256.49C380.642 1256.3 393.092 1256.92 405.453 1258.13C419.664 1259.54 434.211 1261.35 447.993 1266.27C459.111 1270.26 469.241 1278.66 480.067 1283.65C508.53 1296.86 538.521 1307.21 565.242 1326.77C570.926 1330.93 582.167 1337.16 575.338 1346.55C566.841 1358.26 543.264 1358.3 532.334 1359.88Z" stroke="var(--stroke-0, #F1B170)" stroke-width="2"/>
<path id="Shape_40" fill-rule="evenodd" clip-rule="evenodd" d="M501.497 1350.6C476.307 1354.2 448.363 1355.89 423.073 1348.47C410.266 1344.71 398.841 1336.88 393.263 1321.72C389.272 1310.92 388.194 1298.87 382.741 1288.48C380.81 1284.82 373.716 1274.54 377.213 1272.3C384.697 1267.47 401.4 1273.03 411.783 1275.56C427.409 1279.39 440.455 1290.13 455.313 1296.5C478.103 1306.26 506.98 1311.48 527.75 1328.12C547.766 1344.2 508.846 1349.54 501.497 1350.6Z" stroke="var(--stroke-0, #5BE7C3)" stroke-width="2"/>
<path id="Shape_41" fill-rule="evenodd" clip-rule="evenodd" d="M472.693 1341.79C451.32 1345.03 413.309 1346.63 401.116 1320.54C398.854 1315.7 392.607 1288.95 398.643 1286.56C403.619 1284.61 411.427 1287.84 417.048 1290.87C427.505 1296.47 437.315 1302.57 448.122 1307.19C457.322 1311.12 466.742 1314.75 475.822 1319.32C479.676 1321.23 486.919 1323.56 489.336 1327.92C495.843 1339.67 479.2 1340.81 472.693 1341.79Z" fill="var(--fill-0, #01002D)"/>
</g>
</svg>
